<svg xmlns="http://www.w3.org/2000/svg" id="svg3866" version="1.1" viewBox="0 0 400 400"><metadata id="metadata3871"/><g id="layer1" transform="translate(0,-652.36218)"><g id="g5309" transform="matrix(0.43478261,0,0,0.43478261,362.5028,501.09902)"><path id="path3217" fill="#90b12f" stroke-miterlimit="4" stroke-width="0" d="M960,500c0,254.05-205.95,460-460,460s-460-205.95-460-460,205.95-460,460-460,460,205.95,460,460z" transform="translate(-873.75644,307.90526)"/><path id="rect3991" fill="#FFF" stroke="#333" stroke-dashoffset="0" stroke-linecap="round" stroke-linejoin="miter" stroke-miterlimit="4" stroke-width="10" d="m-549.86,1037.9-3.8936-300c-1.1503-88.633,71.36-160,160-160h40c88.64,0,158.67,71.37,160,160l3.8936,300z"/><path id="path3994" fill="none" stroke="#333" stroke-dasharray="none" stroke-linecap="round" stroke-linejoin="miter" stroke-miterlimit="4" stroke-width="10" d="m-469.86,937.91,200,0"/><path id="path3996" fill="#333" stroke="#333" stroke-linecap="butt" stroke-linejoin="miter" stroke-width="1" d="m-369.86,917.91-60-80,120,0z"/><path id="path3998" fill="none" stroke="#333" stroke-dasharray="none" stroke-linecap="butt" stroke-linejoin="miter" stroke-miterlimit="4" stroke-width="10" d="m-369.86,877.91,0-140"/></g></g></svg>