<svg xmlns="http://www.w3.org/2000/svg" id="svg3866" version="1.1" viewBox="0 0 400 400"><metadata id="metadata3871"/><g id="layer1" transform="translate(0,-652.36218)"><g id="g4404" stroke-miterlimit="4" transform="matrix(0.43478261,0,0,0.43478261,143.78281,521.30207)"><path id="path5526" fill="#90b12f" stroke-width="0" d="M960,500c0,254.05-205.95,460-460,460s-460-205.95-460-460,205.95-460,460-460,460,205.95,460,460z" transform="translate(-370.70047,261.43825)"/><rect id="rect5528" width="440" height="520" x="-90.7" y="501.44" fill="#FFF" fill-opacity=".941" stroke="#333" stroke-dasharray="10 30" stroke-dashoffset="0" stroke-linecap="round" stroke-linejoin="round" stroke-width="10"/><path id="path5538" fill="#90b12f" fill-opacity=".941" stroke="#333" stroke-dasharray="none" stroke-dashoffset="0" stroke-linecap="round" stroke-linejoin="round" stroke-width="10" d="m360,380c0,11.046-8.9543,20-20,20s-20-8.9543-20-20,8.9543-20,20-20,20,8.9543,20,20z" transform="translate(-370.70047,261.43825)"/><path id="path5540" fill="#90b12f" fill-opacity=".941" stroke="#333" stroke-dasharray="none" stroke-dashoffset="0" stroke-linecap="round" stroke-linejoin="round" stroke-width="10" d="m360,640c0,11.046-8.9543,20-20,20s-20-8.9543-20-20,8.9543-20,20-20,20,8.9543,20,20z" transform="translate(-370.70047,241.43825)"/><path id="path6222" fill="none" stroke="#333" stroke-dasharray="none" stroke-linecap="round" stroke-linejoin="miter" stroke-width="10" d="m-30.7,641.44-100,0"/><path id="path6224" fill="none" stroke="#333" stroke-dasharray="none" stroke-linecap="round" stroke-linejoin="miter" stroke-width="10" d="m-30.7,881.44-100,0"/><path id="path3219" fill="none" stroke="#333" stroke-dasharray="none" stroke-linecap="round" stroke-linejoin="miter" stroke-width="10" d="M62.08,757.15,261.3,703.77"/><path id="path3221" fill="none" stroke="#333" stroke-dasharray="none" stroke-linecap="round" stroke-linejoin="miter" stroke-width="10" d="M62.08,702.82,261.3,649.44"/></g></g></svg>