<svg xmlns="http://www.w3.org/2000/svg" id="svg3866" version="1.1" viewBox="0 0 400 400"><metadata id="metadata3871"/><g id="layer1" transform="translate(0,-652.36218)"><g id="g4972" transform="matrix(0.43478261,0,0,0.43478261,-72.301992,313.12281)"><path id="path5918" fill="#90b12f" stroke-miterlimit="4" stroke-width="0" d="M960,500c0,254.05-205.95,460-460,460s-460-205.95-460-460,205.95-460,460-460,460,205.95,460,460z" transform="translate(126.29458,740.25055)"/><rect id="rect5920" width="173.87" height="205.48" x="547.26" y="1030.8" fill="#FFF" stroke="#333" stroke-dasharray="none" stroke-dashoffset="0" stroke-linecap="square" stroke-linejoin="round" stroke-miterlimit="4" stroke-width="7"/><path id="path5922" fill="none" stroke="#333" stroke-dasharray="none" stroke-linecap="round" stroke-linejoin="miter" stroke-miterlimit="4" stroke-width="7" d="m602.59,1121.4,86.934-23.294"/><path id="path5924" fill="#90b12f" fill-opacity=".941" stroke="#333" stroke-dasharray="none" stroke-dashoffset="0" stroke-linecap="round" stroke-linejoin="round" stroke-miterlimit="4" stroke-width="12.653" d="m360,380c0,11.046-8.9543,20-20,20s-20-8.9543-20-20,8.9543-20,20-20,20,8.9543,20,20z" transform="matrix(0.39515379,0,0,0.39515379,436.62088,935.93365)"/><path id="path5926" fill="#90b12f" fill-opacity=".941" stroke="#333" stroke-dasharray="none" stroke-dashoffset="0" stroke-linecap="round" stroke-linejoin="round" stroke-miterlimit="4" stroke-width="12.653" d="m360,640c0,11.046-8.9543,20-20,20s-20-8.9543-20-20,8.9543-20,20-20,20,8.9543,20,20z" transform="matrix(0.39515379,0,0,0.39515379,436.62088,928.03055)"/><path id="path5928" fill="none" stroke="#333" stroke-dasharray="none" stroke-linecap="round" stroke-linejoin="miter" stroke-miterlimit="4" stroke-width="7" d="m602.59,1097.7,86.934-23.294"/><path id="path5930" fill="none" stroke="#333" stroke-dasharray="none" stroke-linecap="round" stroke-linejoin="miter" stroke-miterlimit="4" stroke-width="5" d="m570.97,1086.1-39.515,0"/><path id="path5932" fill="none" stroke="#333" stroke-dasharray="none" stroke-linecap="round" stroke-linejoin="miter" stroke-miterlimit="4" stroke-width="5" d="m570.97,1180.9-39.515,0"/><rect id="rect5934" width="173.87" height="205.48" x="792.43" y="1108.9" fill="#FFF" stroke="#333" stroke-dasharray="7 21" stroke-dashoffset="0" stroke-linecap="square" stroke-linejoin="round" stroke-miterlimit="4" stroke-width="7"/><path id="path5936" fill="none" stroke="#333" stroke-dasharray="none" stroke-linecap="round" stroke-linejoin="miter" stroke-miterlimit="4" stroke-width="7" d="m847.75,1199.5,86.934-23.294"/><path id="path5938" fill="#90b12f" fill-opacity=".941" stroke="#333" stroke-dasharray="none" stroke-dashoffset="0" stroke-linecap="round" stroke-linejoin="round" stroke-miterlimit="4" stroke-width="12.653" d="m360,380c0,11.046-8.9543,20-20,20s-20-8.9543-20-20,8.9543-20,20-20,20,8.9543,20,20z" transform="matrix(0.39515379,0,0,0.39515379,681.78408,1014.0298)"/><path id="path5940" fill="#90b12f" fill-opacity=".941" stroke="#333" stroke-dasharray="none" stroke-dashoffset="0" stroke-linecap="round" stroke-linejoin="round" stroke-miterlimit="4" stroke-width="12.653" d="m360,640c0,11.046-8.9543,20-20,20s-20-8.9543-20-20,8.9543-20,20-20,20,8.9543,20,20z" transform="matrix(0.39515379,0,0,0.39515379,681.78408,1006.1267)"/><path id="path5942" fill="none" stroke="#333" stroke-dasharray="none" stroke-linecap="round" stroke-linejoin="miter" stroke-miterlimit="4" stroke-width="7" d="m847.75,1175.8,86.934-23.294"/><path id="path5944" fill="none" stroke="#333" stroke-dasharray="none" stroke-linecap="round" stroke-linejoin="miter" stroke-miterlimit="4" stroke-width="5" d="m816.14,1164.2-39.515,0"/><path id="path5946" fill="none" stroke="#333" stroke-dasharray="none" stroke-linecap="round" stroke-linejoin="miter" stroke-miterlimit="4" stroke-width="5" d="m816.14,1259-39.515,0"/><rect id="rect5948" width="173.87" height="205.48" x="310.43" y="1150.8" fill="#FFF" stroke="#333" stroke-dasharray="7 21" stroke-dashoffset="0" stroke-linecap="square" stroke-linejoin="round" stroke-miterlimit="4" stroke-width="7"/><path id="path5950" fill="none" stroke="#333" stroke-dasharray="none" stroke-linecap="round" stroke-linejoin="miter" stroke-miterlimit="4" stroke-width="7" d="m365.75,1241.4,86.934-23.294"/><path id="path5952" fill="#90b12f" fill-opacity=".941" stroke="#333" stroke-dasharray="none" stroke-dashoffset="0" stroke-linecap="round" stroke-linejoin="round" stroke-miterlimit="4" stroke-width="12.653" d="m360,380c0,11.046-8.9543,20-20,20s-20-8.9543-20-20,8.9543-20,20-20,20,8.9543,20,20z" transform="matrix(0.39515379,0,0,0.39515379,199.78408,1055.9337)"/><path id="path5954" fill="#90b12f" fill-opacity=".941" stroke="#333" stroke-dasharray="none" stroke-dashoffset="0" stroke-linecap="round" stroke-linejoin="round" stroke-miterlimit="4" stroke-width="12.653" d="m360,640c0,11.046-8.9543,20-20,20s-20-8.9543-20-20,8.9543-20,20-20,20,8.9543,20,20z" transform="matrix(0.39515379,0,0,0.39515379,199.78408,1048.0307)"/><path id="path5956" fill="none" stroke="#333" stroke-dasharray="none" stroke-linecap="round" stroke-linejoin="miter" stroke-miterlimit="4" stroke-width="7" d="m365.75,1217.7,86.934-23.294"/><path id="path5958" fill="none" stroke="#333" stroke-dasharray="none" stroke-linecap="round" stroke-linejoin="miter" stroke-miterlimit="4" stroke-width="5" d="m334.14,1206.1-39.515,0"/><path id="path5960" fill="none" stroke="#333" stroke-dasharray="none" stroke-linecap="round" stroke-linejoin="miter" stroke-miterlimit="4" stroke-width="5" d="m334.14,1300.9-39.515,0"/><g id="g5962" fill="#333" stroke="#333" stroke-linecap="butt" stroke-linejoin="miter" transform="translate(-1870.5422,741.88835)"><path id="path5964" stroke-width="1" d="m2260,652.36-20,40,40,0z"/><path id="path5966" stroke-dasharray="none" stroke-miterlimit="4" stroke-width="7" d="m2260,1620,0,140" transform="translate(0,-947.63782)"/></g><g id="g5968" fill="#333" stroke="#333" stroke-linecap="butt" stroke-linejoin="miter" transform="translate(-1873.7054,703.88835)"><path id="path5970" stroke-width="1" d="m2500,572.36-20,40,40,0z"/><path id="path5972" stroke-dasharray="none" stroke-miterlimit="4" stroke-width="7" d="m2500,592.36,0,220"/></g><g id="g5974" fill="#333" stroke="#333" stroke-linecap="butt" stroke-linejoin="miter" transform="translate(-1868.5422,741.98445)"><path id="path5976" stroke-width="1" d="m2740,612.36-20,40,40,0z"/><path id="path5978" stroke-dasharray="none" stroke-miterlimit="4" stroke-width="7" d="m2740,632.36,0,180"/></g><path id="rect5984" fill="#333" stroke="#333" stroke-dasharray="none" stroke-dashoffset="0" stroke-linecap="round" stroke-linejoin="round" stroke-miterlimit="4" stroke-width="5" d="m678.97,869.29-50,86.602-34.641-20-10,17.32,34.641,20,17.321,10,10-17.32,50-86.602-17.321-10z"/></g></g></svg>