<svg xmlns="http://www.w3.org/2000/svg" id="svg3866" version="1.1" viewBox="0 0 400 400"><metadata id="metadata3871"/><g id="layer1" transform="translate(0,-652.36218)"><g id="g5380" stroke-miterlimit="4" transform="matrix(0.43478261,0,0,0.43478261,280.8122,530.08601)"><path id="path4000" fill="#90b12f" stroke-width="0" d="M960,500c0,254.05-205.95,460-460,460s-460-205.95-460-460,205.95-460,460-460,460,205.95,460,460z" transform="translate(-685.86807,241.2352)"/><rect id="rect4022" width="372.31" height="440" x="-173.84" y="544.08" fill="#FFF" stroke="#333" stroke-dasharray="none" stroke-dashoffset="0" stroke-linecap="square" stroke-linejoin="round" stroke-width="10" transform="matrix(0.96592583,0.25881905,-0.25881905,0.96592583,0,0)"/><rect id="rect4002" width="372.31" height="440" x="-372.02" y="521.24" fill="#FFF" stroke="#333" stroke-dasharray="none" stroke-dashoffset="0" stroke-linecap="square" stroke-linejoin="round" stroke-width="10"/><path id="path4004" fill="#FFF" stroke="#333" stroke-dasharray="none" stroke-linecap="round" stroke-linejoin="miter" stroke-width="10" d="m-304.33,588.93,236.92,0"/><path id="path4006" fill="#FFF" stroke="#333" stroke-dasharray="none" stroke-linecap="round" stroke-linejoin="miter" stroke-width="10" d="m-304.33,690.47,236.92,0"/><path id="path4008" fill="#FFF" stroke="#333" stroke-dasharray="none" stroke-linecap="round" stroke-linejoin="miter" stroke-width="10" d="m-304.33,792,236.92,0"/><path id="path4010" fill="#FFF" stroke="#333" stroke-dasharray="none" stroke-linecap="round" stroke-linejoin="miter" stroke-width="10" d="m-304.33,893.54,236.92,0"/><path id="path4016" fill="#FFF" stroke="#333" stroke-dasharray="none" stroke-linecap="round" stroke-linejoin="miter" stroke-width="10" d="m-304.33,639.7,236.92,0"/><path id="path4018" fill="#FFF" stroke="#333" stroke-dasharray="none" stroke-linecap="round" stroke-linejoin="miter" stroke-width="10" d="m-304.33,741.24,236.92,0"/><path id="path4020" fill="#FFF" stroke="#333" stroke-dasharray="none" stroke-linecap="round" stroke-linejoin="miter" stroke-width="10" d="m-304.33,842.77,236.92,0"/></g></g></svg>