<svg xmlns="http://www.w3.org/2000/svg" id="svg3866" version="1.1" viewBox="0 0 400 400"><metadata id="metadata3871"/><g id="layer1" transform="translate(0,-652.36218)"><g id="g3922" stroke-miterlimit="4" transform="matrix(0.43478261,0,0,0.43478261,-452.17391,1823.985)"><path id="path5272" fill="#90b12f" stroke-width="0" d="M960,500c0,254.05-205.95,460-460,460s-460-205.95-460-460,205.95-460,460-460,460,205.95,460,460z" transform="translate(1000,-2734.7324)"/><rect id="rect5274" width="241.56" height="285.48" x="1582.4" y="-2377.5" fill="#FFF" stroke="#333" stroke-dasharray="none" stroke-dashoffset="0" stroke-linecap="square" stroke-linejoin="round" stroke-width="10"/><path id="path5278" fill="#FFF" stroke="#333" stroke-dasharray="none" stroke-linecap="round" stroke-linejoin="miter" stroke-width="7" d="M1659.2-2251.5,1780-2283.9"/><path id="path5284" fill="#90b12f" fill-opacity=".941" stroke="#333" stroke-dasharray="none" stroke-dashoffset="0" stroke-linecap="round" stroke-linejoin="round" stroke-width="9.107" d="m360,380c0,11.046-8.9543,20-20,20s-20-8.9543-20-20,8.9543-20,20-20,20,8.9543,20,20z" transform="matrix(0.54899995,0,0,0.54899995,1428.64,-2509.2324)"/><path id="path5286" fill="#90b12f" fill-opacity=".941" stroke="#333" stroke-dasharray="none" stroke-dashoffset="0" stroke-linecap="round" stroke-linejoin="round" stroke-width="9.107" d="m360,640c0,11.046-8.9543,20-20,20s-20-8.9543-20-20,8.9543-20,20-20,20,8.9543,20,20z" transform="matrix(0.54899995,0,0,0.54899995,1428.64,-2520.2124)"/><path id="path5288" fill="#FFF" stroke="#333" stroke-dasharray="none" stroke-linecap="round" stroke-linejoin="miter" stroke-width="7" d="M1659.2-2284.4,1780-2316.8"/><path id="path5294" fill="#FFF" stroke="#333" stroke-dasharray="none" stroke-linecap="round" stroke-linejoin="miter" stroke-width="5" d="m1615.3-2300.6-54.9,0"/><path id="path5298" fill="#FFF" stroke="#333" stroke-dasharray="none" stroke-linecap="round" stroke-linejoin="miter" stroke-width="5" d="m1615.3-2168.9-54.9,0"/><path id="path5371" fill="#FFF" stroke="#333" stroke-dasharray="none" stroke-linecap="butt" stroke-linejoin="miter" stroke-width="7" d="m1580-2234.7-420,0"/><rect id="rect5373" width="140" height="180" x="1180" y="-2174.7" fill="#FFF" stroke="#333" stroke-dasharray="none" stroke-dashoffset="0" stroke-linecap="round" stroke-linejoin="round" stroke-width="7"/><path id="path5375" fill="#333" stroke="#333" stroke-dasharray="none" stroke-dashoffset="0" stroke-linecap="round" stroke-linejoin="round" stroke-width="5" d="m1310,500c0,11.046-8.9543,20-20,20s-20-8.9543-20-20,8.9543-20,20-20,20,8.9543,20,20z" transform="translate(-40,-2734.7324)"/><path id="path5377" fill="#FFF" stroke="#333" stroke-dasharray="none" stroke-linecap="butt" stroke-linejoin="miter" stroke-width="5" d="m1250-2214.7,0,40"/><path id="path5379" fill="#FFF" stroke="#333" stroke-dasharray="none" stroke-linecap="round" stroke-linejoin="miter" stroke-width="4" d="m1300-2144.7-70,0"/><path id="path5381" fill="#FFF" stroke="#333" stroke-dasharray="none" stroke-linecap="round" stroke-linejoin="miter" stroke-width="4" d="m1230-2114.7,70,0"/><path id="path5383" fill="#FFF" stroke="#333" stroke-dasharray="none" stroke-linecap="round" stroke-linejoin="miter" stroke-width="4" d="m1230-2084.7,70,0"/><path id="path5385" fill="#FFF" stroke="#333" stroke-dasharray="none" stroke-linecap="round" stroke-linejoin="miter" stroke-width="4" d="m1230-2054.7,70,0"/><path id="path5387" fill="#FFF" stroke="#333" stroke-dasharray="none" stroke-linecap="round" stroke-linejoin="miter" stroke-width="4" d="m1230-2024.7,70,0"/><path id="path5389" fill="#90b12f" fill-opacity=".941" stroke="#333" stroke-dasharray="none" stroke-dashoffset="0" stroke-linecap="round" stroke-linejoin="round" stroke-width="3" d="m1250,620c0,2.7614-2.2386,5-5,5s-5-2.2386-5-5,2.2386-5,5-5,5,2.2386,5,5z" transform="matrix(1.3885202,0,0,1.3885202,-523.70766,-2975.615)"/><path id="path5490" fill="#90b12f" fill-opacity=".941" stroke="#333" stroke-dasharray="none" stroke-dashoffset="0" stroke-linecap="round" stroke-linejoin="round" stroke-width="3" d="m1250,620c0,2.7614-2.2386,5-5,5s-5-2.2386-5-5,2.2386-5,5-5,5,2.2386,5,5z" transform="matrix(1.3885202,0,0,1.3885202,-523.70766,-2915.5109)"/><rect id="rect5506" width="140" height="180" x="1372" y="-2174.7" fill="#FFF" fill-opacity=".977" stroke="#333" stroke-dasharray="none" stroke-dashoffset="0" stroke-linecap="round" stroke-linejoin="round" stroke-width="7"/><path id="path5508" fill="#333" fill-opacity=".977" stroke="#333" stroke-dasharray="none" stroke-dashoffset="0" stroke-linecap="round" stroke-linejoin="round" stroke-width="5" d="m1310,500c0,11.046-8.9543,20-20,20s-20-8.9543-20-20,8.9543-20,20-20,20,8.9543,20,20z" transform="translate(152,-2734.7324)"/><path id="path5510" fill="#FFF" fill-opacity=".977" stroke="#333" stroke-dasharray="none" stroke-linecap="butt" stroke-linejoin="miter" stroke-width="5" d="m1442-2214.7,0,40"/><path id="path5512" fill="#FFF" fill-opacity=".977" stroke="#333" stroke-dasharray="none" stroke-linecap="round" stroke-linejoin="miter" stroke-width="4" d="m1492-2144.7-70,0"/><path id="path5514" fill="#FFF" fill-opacity=".977" stroke="#333" stroke-dasharray="none" stroke-linecap="round" stroke-linejoin="miter" stroke-width="4" d="m1422-2114.7,70,0"/><path id="path5516" fill="#FFF" fill-opacity=".977" stroke="#333" stroke-dasharray="none" stroke-linecap="round" stroke-linejoin="miter" stroke-width="4" d="m1422-2084.7,70,0"/><path id="path5518" fill="#FFF" fill-opacity=".977" stroke="#333" stroke-dasharray="none" stroke-linecap="round" stroke-linejoin="miter" stroke-width="4" d="m1422-2054.7,70,0"/><path id="path5520" fill="#FFF" fill-opacity=".977" stroke="#333" stroke-dasharray="none" stroke-linecap="round" stroke-linejoin="miter" stroke-width="4" d="m1422-2024.7,70,0"/><path id="path5522" fill="#90b12f" fill-opacity=".941" stroke="#333" stroke-dasharray="none" stroke-dashoffset="0" stroke-linecap="round" stroke-linejoin="round" stroke-width="3" d="m1250,620c0,2.7614-2.2386,5-5,5s-5-2.2386-5-5,2.2386-5,5-5,5,2.2386,5,5z" transform="matrix(1.3885202,0,0,1.3885202,-331.70766,-2975.615)"/><path id="path5524" fill="#90b12f" fill-opacity=".941" stroke="#333" stroke-dasharray="none" stroke-dashoffset="0" stroke-linecap="round" stroke-linejoin="round" stroke-width="3" d="m1250,620c0,2.7614-2.2386,5-5,5s-5-2.2386-5-5,2.2386-5,5-5,5,2.2386,5,5z" transform="matrix(1.3885202,0,0,1.3885202,-331.70766,-2915.5109)"/></g></g></svg>