<svg xmlns="http://www.w3.org/2000/svg" id="svg3866" version="1.1" viewBox="0 0 400 400"><metadata id="metadata3871"/><g id="layer1" transform="translate(0,-652.36218)"><g id="g4484" transform="matrix(0.43478261,0,0,0.43478261,113.03904,526.57243)"><path id="path5548" fill="#90b12f" stroke-miterlimit="4" stroke-width="0" d="M960,500c0,254.05-205.95,460-460,460s-460-205.95-460-460,205.95-460,460-460,460,205.95,460,460z" transform="translate(-299.9898,249.31642)"/><path id="path5652" fill="none" stroke="#333" stroke-dasharray="none" stroke-linecap="butt" stroke-linejoin="miter" stroke-miterlimit="4" stroke-width="8.854" d="m-79.99,1029.3,70.833-70.833,35.417,35.417,53.75-104.58,40,80,80-160"/><rect id="rect5656" width="241.56" height="285.48" x="218.45" y="483.84" fill="#FFF" stroke="#333" stroke-dasharray="none" stroke-dashoffset="0" stroke-linecap="square" stroke-linejoin="round" stroke-miterlimit="4" stroke-width="10"/><path id="path5658" fill="none" stroke="#333" stroke-dasharray="none" stroke-linecap="round" stroke-linejoin="miter" stroke-miterlimit="4" stroke-width="7" d="m295.31,609.82,120.78-32.363"/><path id="path5660" fill="#90b12f" fill-opacity=".941" stroke="#333" stroke-dasharray="none" stroke-dashoffset="0" stroke-linecap="round" stroke-linejoin="round" stroke-miterlimit="4" stroke-width="9.107" d="m360,380c0,11.046-8.9543,20-20,20s-20-8.9543-20-20,8.9543-20,20-20,20,8.9543,20,20z" transform="matrix(0.54899995,0,0,0.54899995,64.730304,352.07642)"/><path id="path5662" fill="#90b12f" fill-opacity=".941" stroke="#333" stroke-dasharray="none" stroke-dashoffset="0" stroke-linecap="round" stroke-linejoin="round" stroke-miterlimit="4" stroke-width="9.107" d="m360,640c0,11.046-8.9543,20-20,20s-20-8.9543-20-20,8.9543-20,20-20,20,8.9543,20,20z" transform="matrix(0.54899995,0,0,0.54899995,64.730304,341.09642)"/><path id="path5664" fill="none" stroke="#333" stroke-dasharray="none" stroke-linecap="round" stroke-linejoin="miter" stroke-miterlimit="4" stroke-width="7" d="m295.31,576.88,120.78-32.363"/><path id="path5666" fill="none" stroke="#333" stroke-dasharray="none" stroke-linecap="round" stroke-linejoin="miter" stroke-miterlimit="4" stroke-width="5" d="m251.39,560.7-54.9,0"/><path id="path5668" fill="none" stroke="#333" stroke-dasharray="none" stroke-linecap="round" stroke-linejoin="miter" stroke-miterlimit="4" stroke-width="5" d="m251.39,692.46-54.9,0"/><path id="path5670" fill="#333" stroke="#333" stroke-linecap="butt" stroke-linejoin="miter" stroke-width="1" d="m166.01,823.32,40-20,0,40"/><path id="path5672" fill="#FFF" stroke="#333" stroke-dasharray="none" stroke-linecap="round" stroke-linejoin="miter" stroke-miterlimit="4" stroke-width="5" d="m476.01,499.32,0,250"/><path id="path6226" fill="#FFF" stroke="#333" stroke-dasharray="none" stroke-linecap="round" stroke-linejoin="miter" stroke-miterlimit="4" stroke-width="5" d="m490.01,509.32,0,230"/></g></g></svg>