<svg xmlns="http://www.w3.org/2000/svg" id="svg3866" version="1.1" viewBox="0 0 400 400"><metadata id="metadata3871"/><g id="layer1" transform="translate(0,-652.36218)"><g id="g5079" stroke-miterlimit="4" transform="matrix(0.43478261,0,0,0.43478261,290.47453,487.92312)"><path id="path5796" fill="#90b12f" stroke-width="0" d="M960,500c0,254.05-205.95,460-460,460s-460-205.95-460-460,205.95-460,460-460,460,205.95,460,460z" transform="translate(-708.09142,338.20984)"/><rect id="rect5353-7" width="440" height="520" x="-427.98" y="578.21" fill="#FFF" stroke="#333" stroke-dasharray="none" stroke-dashoffset="0" stroke-linecap="square" stroke-linejoin="round" stroke-width="10"/><path id="path5355-1" fill="none" stroke="#333" stroke-dasharray="none" stroke-linecap="round" stroke-linejoin="miter" stroke-width="10.488" d="m-287.99,807.68,220-58.949"/><path id="path5357-9" fill="#90b12f" fill-opacity=".941" stroke="#333" stroke-dasharray="none" stroke-dashoffset="0" stroke-linecap="round" stroke-linejoin="round" stroke-width="10" d="m360,380c0,11.046-8.9543,20-20,20s-20-8.9543-20-20,8.9543-20,20-20,20,8.9543,20,20z" transform="translate(-707.98502,338.20984)"/><path id="path5359-0" fill="#90b12f" fill-opacity=".941" stroke="#333" stroke-dasharray="none" stroke-dashoffset="0" stroke-linecap="round" stroke-linejoin="round" stroke-width="10" d="m360,640c0,11.046-8.9543,20-20,20s-20-8.9543-20-20,8.9543-20,20-20,20,8.9543,20,20z" transform="translate(-707.98502,318.20984)"/><path id="path5361-1" fill="none" stroke="#333" stroke-dasharray="none" stroke-linecap="round" stroke-linejoin="miter" stroke-width="10.488" d="M-287.99,747.68-67.985,688.74"/><path id="path5363-0" fill="none" stroke="#333" stroke-dasharray="none" stroke-linecap="round" stroke-linejoin="miter" stroke-width="10" d="m-367.99,718.21-100,0"/><path id="path5365-3" fill="none" stroke="#333" stroke-dasharray="none" stroke-linecap="round" stroke-linejoin="miter" stroke-width="10" d="m-367.99,958.21-100,0"/><path id="path5367-2" fill="none" stroke="#333" stroke-dasharray="none" stroke-linecap="round" stroke-linejoin="miter" stroke-width="10" d="m32.015,598.21,0,480"/><path id="path5369-7" fill="none" stroke="#333" stroke-dasharray="none" stroke-linecap="round" stroke-linejoin="miter" stroke-width="9.574" d="m52.015,618.21,0,440"/><path id="path5822" fill="none" stroke="#333" stroke-dasharray="none" stroke-linecap="butt" stroke-linejoin="miter" stroke-width="6.528" d="m-290.41,956.77c-8.8532-23.742,19.078-83.039,23.588-72.857,6.6533,15.017,3.349,63.603,9.9319,78.462,1.7566,3.9646,4.5702-81.71,9.932-75.659,8.5064,9.6,7.9286,72.857,23.588,72.857,2.7667,0,5.2572-72.2,9.9319-61.648,5.2381,11.823-1.4417,48.813,7.449,58.846,11.564,13.05,15.688-87.887,24.83-67.253,4.3085,9.7247,1.531,45.489,6.2075,56.044,0.3209,0.7242,4.966-35.403,4.966-30.824,0,13.057,0.7482,33.626,7.449,33.626,20.242,0,22.551-13.626,52.551,6.3735"/><path id="path5826" fill="none" stroke="#333" stroke-dasharray="none" stroke-linecap="butt" stroke-linejoin="miter" stroke-width="5" d="m-109.99,924.74c9.4803,15.462,30,30,30,50"/><path id="path5828" fill="none" stroke="#333" stroke-dasharray="none" stroke-linecap="butt" stroke-linejoin="miter" stroke-width="5" d="m-109.99,974.74c1.2703-11.735,23.899-45.917,40-30"/></g></g></svg>