<svg xmlns="http://www.w3.org/2000/svg" id="svg3866" version="1.1" viewBox="0 0 400 400"><metadata id="metadata3871"/><g id="layer1" transform="translate(0,-652.36218)"><g id="g4177" stroke-miterlimit="4" transform="matrix(0.43478261,0,0,0.43478261,191.21607,538.86994)"><path id="path6368" fill="#90b12f" stroke-width="0" d="M960,500c0,254.05-205.95,460-460,460s-460-205.95-460-460,205.95-460,460-460,460,205.95,460,460z" transform="translate(-479.79695,221.03215)"/><path id="path6498" fill="#FFF" stroke="#333" stroke-dasharray="none" stroke-linecap="butt" stroke-linejoin="miter" stroke-width="10" d="m20.203,942.75c-51.238-69.121-95.872-144.85-126.69-234.38-38.008-145.7,49.726-209.04,126.69-209.04,76.968,0,164.7,63.347,126.69,209.04-26.764,85.861-72.736,162.12-126.69,234.38z"/><path id="path6501" fill="#90b12f" fill-opacity=".941" stroke="#333" stroke-dasharray="none" stroke-dashoffset="0" stroke-linecap="square" stroke-linejoin="round" stroke-width="15.786" d="m540,3300c0,33.137-26.863,60-60,60s-60-26.863-60-60,26.863-60,60-60,60,26.863,60,60z" transform="matrix(0.63346937,0,0,0.63346937,-283.86225,-1460.6363)"/></g></g></svg>