<svg xmlns="http://www.w3.org/2000/svg" id="svg3866" version="1.1" viewBox="0 0 400 400"><metadata id="metadata3871"/><g id="layer1" transform="translate(0,-652.36218)"><g id="g4332" stroke-miterlimit="4" transform="matrix(0.43478261,0,0,0.43478261,103.37671,517.7885)"><path id="path6456" fill="#90b12f" stroke-width="0" d="M960,500c0,254.05-205.95,460-460,460s-460-205.95-460-460,205.95-460,460-460,460,205.95,460,460z" transform="translate(-277.76644,269.51947)"/><rect id="rect6603" width="440" height="520" x="569.52" y="-482.23" fill="#FFF" stroke="#333" stroke-dasharray="none" stroke-dashoffset="0" stroke-linecap="square" stroke-linejoin="round" stroke-width="10" transform="matrix(0,1,-1,0,0,0)"/><path id="path6607" fill="#90b12f" fill-opacity=".941" stroke="#333" stroke-dasharray="none" stroke-dashoffset="0" stroke-linecap="round" stroke-linejoin="round" stroke-width="10" d="m360,380c0,11.046-8.9543,20-20,20s-20-8.9543-20-20,8.9543-20,20-20,20,8.9543,20,20z" transform="matrix(0,1,-1,0,722.23366,289.51947)"/><path id="path6609" fill="#90b12f" fill-opacity=".941" stroke="#333" stroke-dasharray="none" stroke-dashoffset="0" stroke-linecap="round" stroke-linejoin="round" stroke-width="10" d="m360,640c0,11.046-8.9543,20-20,20s-20-8.9543-20-20,8.9543-20,20-20,20,8.9543,20,20z" transform="matrix(0,1,-1,0,742.23366,289.51947)"/><path id="path6613" fill="#FFF" stroke="#333" stroke-dasharray="none" stroke-linecap="round" stroke-linejoin="miter" stroke-width="10" d="m342.23,629.52,0-100"/><path id="path6615" fill="#FFF" stroke="#333" stroke-dasharray="none" stroke-linecap="round" stroke-linejoin="miter" stroke-width="10" d="m102.23,629.52,0-100"/><path id="path6629" fill="#FFF" stroke="#333" stroke-dasharray="none" stroke-linecap="butt" stroke-linejoin="miter" stroke-width="7" d="m22.34,769.52,400,0"/><path id="path6631" fill="#FFF" stroke="#333" stroke-dasharray="none" stroke-linecap="butt" stroke-linejoin="miter" stroke-width="7" d="m22.34,829.52,400,0"/><path id="path6633" fill="#FFF" stroke="#333" stroke-dasharray="none" stroke-linecap="butt" stroke-linejoin="miter" stroke-width="7.182" d="m22.34,889.52,400,0"/><path id="path6637" fill="none" stroke="#333" stroke-dasharray="none" stroke-linecap="butt" stroke-linejoin="miter" stroke-width="7" d="m102.34,709.52,0,240"/><path id="path6639" fill="none" stroke="#333" stroke-dasharray="none" stroke-linecap="butt" stroke-linejoin="miter" stroke-width="7" d="m342.34,709.52,0,240"/><path id="path6641" fill="none" stroke="#333" stroke-dasharray="none" stroke-linecap="butt" stroke-linejoin="miter" stroke-width="7" d="m222.34,709.52,0,240"/></g></g></svg>