<svg xmlns="http://www.w3.org/2000/svg" id="svg3866" version="1.1" viewBox="0 0 400 400"><metadata id="metadata3871"/><g id="layer1" transform="translate(0,-652.36218)"><g id="g4249" stroke-miterlimit="4" transform="matrix(0.43478261,0,0,0.43478261,260.60915,514.27492)"><path id="path6366" fill="#90b12f" stroke-width="0" d="M960,500c0,254.05-205.95,460-460,460s-460-205.95-460-460,205.95-460,460-460,460,205.95,460,460z" transform="translate(-639.40105,277.60069)"/><rect id="rect6510" width="467.35" height="226.8" x="-370.67" y="615.82" fill="#FFF" stroke="#333" stroke-dasharray="none" stroke-dashoffset="0" stroke-linecap="square" stroke-linejoin="round" stroke-width="10"/><path id="rect6514" fill-opacity="0" stroke="#333" stroke-dasharray="none" stroke-dashoffset="0" stroke-linecap="square" stroke-linejoin="round" stroke-width="5" d="m-312.26,644.17c0,15.657-13.077,28.35-29.209,28.35v113.4c16.132,0,29.209,12.693,29.209,28.35h350.51c0-15.657,13.077-28.35,29.209-28.35v-113.4c-16.132,0-29.209-12.693-29.209-28.35h-350.51z"/><path id="path6526" fill-opacity="0" stroke="#333" stroke-dasharray="none" stroke-dashoffset="0" stroke-linecap="square" stroke-linejoin="round" stroke-width="7" d="m-137,667.37c-18.258,0-33.059,14.366-33.059,32.087,0,13.411,8.4876,24.885,20.524,29.681-31.544,2.4065-20.524,39.841-31.544,61.233h88.158c-11.02-21.391,0-58.826-31.544-61.233,12.037-4.7957,20.524-16.27,20.524-29.681,0-17.721-14.801-32.087-33.059-32.087z"/><path id="path6528" fill-opacity="0" stroke="#333" stroke-dasharray="none" stroke-dashoffset="0" stroke-linecap="square" stroke-linejoin="round" stroke-width="14.595" d="m1740,3480c0,33.137-26.863,60-60,60s-60-26.863-60-60,26.863-60,60-60,60,26.863,60,60z" transform="matrix(0.48681823,0,0,0.47250006,-823.41475,-915.08031)"/><path id="path6530" fill-opacity="0" stroke="#333" stroke-dasharray="none" stroke-dashoffset="0" stroke-linecap="square" stroke-linejoin="round" stroke-width="14.595" d="m1740,3480c0,33.137-26.863,60-60,60s-60-26.863-60-60,26.863-60,60-60,60,26.863,60,60z" transform="matrix(0.48681823,0,0,0.47250006,-1086.2967,-915.08031)"/><path id="path6555" fill="#333" stroke="#333" stroke-dasharray="none" stroke-linecap="butt" stroke-linejoin="miter" stroke-width="6" d="m-355.4,869.38h432"/><path id="path6557" fill="#333" stroke="#333" stroke-dasharray="none" stroke-linecap="butt" stroke-linejoin="miter" stroke-width="6" d="m-379.4,869.38h480"/><path id="path6561" fill="#333" stroke="#333" stroke-dasharray="none" stroke-linecap="butt" stroke-linejoin="miter" stroke-width="6" d="m-379.4,893.38h480"/><path id="path6563" fill="#333" stroke="#333" stroke-dasharray="none" stroke-linecap="butt" stroke-linejoin="miter" stroke-width="6" d="m-379.4,917.38h480"/><path id="path6565" fill="#333" stroke="#333" stroke-dasharray="none" stroke-linecap="butt" stroke-linejoin="miter" stroke-width="6" d="m-379.4,941.38h480"/></g></g></svg>