<svg xmlns="http://www.w3.org/2000/svg" id="svg3866" version="1.1" viewBox="0 0 400 400"><metadata id="metadata3871"/><g id="layer1" transform="translate(0,-652.36218)"><g id="g4616" stroke-miterlimit="4" transform="matrix(0.43478261,0,0,0.43478261,-74.93717,355.2857)"><path id="path5564" fill="#90b12f" stroke-width="0" d="M960,500c0,254.05-205.95,460-460,460s-460-205.95-460-460,205.95-460,460-460,460,205.95,460,460z" transform="translate(132.35549,643.27591)"/><rect id="rect5694" width="173.87" height="205.48" x="553.32" y="917.8" fill="#FFF" stroke="#333" stroke-dasharray="7 21" stroke-dashoffset="0" stroke-linecap="square" stroke-linejoin="round" stroke-width="7"/><path id="path5696" fill="none" stroke="#333" stroke-dasharray="none" stroke-linecap="round" stroke-linejoin="miter" stroke-width="7" d="m608.65,1008.5,86.934-23.294"/><path id="path5698" fill="#90b12f" fill-opacity=".941" stroke="#333" stroke-dasharray="none" stroke-dashoffset="0" stroke-linecap="round" stroke-linejoin="round" stroke-width="12.653" d="m360,380c0,11.046-8.9543,20-20,20s-20-8.9543-20-20,8.9543-20,20-20,20,8.9543,20,20z" transform="matrix(0.39515379,0,0,0.39515379,442.68179,822.95901)"/><path id="path5700" fill="#90b12f" fill-opacity=".941" stroke="#333" stroke-dasharray="none" stroke-dashoffset="0" stroke-linecap="round" stroke-linejoin="round" stroke-width="12.653" d="m360,640c0,11.046-8.9543,20-20,20s-20-8.9543-20-20,8.9543-20,20-20,20,8.9543,20,20z" transform="matrix(0.39515379,0,0,0.39515379,442.68179,815.05591)"/><path id="path5702" fill="none" stroke="#333" stroke-dasharray="none" stroke-linecap="round" stroke-linejoin="miter" stroke-width="7" d="m608.65,984.76,86.934-23.294"/><path id="path5704" fill="none" stroke="#333" stroke-dasharray="none" stroke-linecap="round" stroke-linejoin="miter" stroke-width="5" d="m577.03,973.12-39.515,0"/><path id="path5706" fill="none" stroke="#333" stroke-dasharray="none" stroke-linecap="round" stroke-linejoin="miter" stroke-width="5" d="m577.03,1068-39.515,0"/><rect id="rect5721" width="173.87" height="205.48" x="798.49" y="957.8" fill="#FFF" stroke="#333" stroke-dasharray="7 21" stroke-dashoffset="0" stroke-linecap="square" stroke-linejoin="round" stroke-width="7"/><path id="path5723" fill="none" stroke="#333" stroke-dasharray="none" stroke-linecap="round" stroke-linejoin="miter" stroke-width="7" d="m853.81,1048.5,86.934-23.294"/><path id="path5725" fill="#90b12f" fill-opacity=".941" stroke="#333" stroke-dasharray="none" stroke-dashoffset="0" stroke-linecap="round" stroke-linejoin="round" stroke-width="12.653" d="m360,380c0,11.046-8.9543,20-20,20s-20-8.9543-20-20,8.9543-20,20-20,20,8.9543,20,20z" transform="matrix(0.39515379,0,0,0.39515379,687.84499,862.95901)"/><path id="path5727" fill="#90b12f" fill-opacity=".941" stroke="#333" stroke-dasharray="none" stroke-dashoffset="0" stroke-linecap="round" stroke-linejoin="round" stroke-width="12.653" d="m360,640c0,11.046-8.9543,20-20,20s-20-8.9543-20-20,8.9543-20,20-20,20,8.9543,20,20z" transform="matrix(0.39515379,0,0,0.39515379,687.84499,855.05591)"/><path id="path5729" fill="none" stroke="#333" stroke-dasharray="none" stroke-linecap="round" stroke-linejoin="miter" stroke-width="7" d="m853.81,1024.8,86.934-23.294"/><path id="path5731" fill="none" stroke="#333" stroke-dasharray="none" stroke-linecap="round" stroke-linejoin="miter" stroke-width="5" d="m822.2,1013.1-39.515,0"/><path id="path5733" fill="none" stroke="#333" stroke-dasharray="none" stroke-linecap="round" stroke-linejoin="miter" stroke-width="5" d="m822.2,1108-39.515,0"/><rect id="rect5737" width="173.87" height="205.48" x="316.49" y="999.8" fill="#FFF" stroke="#333" stroke-dasharray="7 21" stroke-dashoffset="0" stroke-linecap="square" stroke-linejoin="round" stroke-width="7"/><path id="path5739" fill="none" stroke="#333" stroke-dasharray="none" stroke-linecap="round" stroke-linejoin="miter" stroke-width="7" d="m371.81,1090.5,86.934-23.294"/><path id="path5741" fill="#90b12f" fill-opacity=".941" stroke="#333" stroke-dasharray="none" stroke-dashoffset="0" stroke-linecap="round" stroke-linejoin="round" stroke-width="12.653" d="m360,380c0,11.046-8.9543,20-20,20s-20-8.9543-20-20,8.9543-20,20-20,20,8.9543,20,20z" transform="matrix(0.39515379,0,0,0.39515379,205.84499,904.95901)"/><path id="path5743" fill="#90b12f" fill-opacity=".941" stroke="#333" stroke-dasharray="none" stroke-dashoffset="0" stroke-linecap="round" stroke-linejoin="round" stroke-width="12.653" d="m360,640c0,11.046-8.9543,20-20,20s-20-8.9543-20-20,8.9543-20,20-20,20,8.9543,20,20z" transform="matrix(0.39515379,0,0,0.39515379,205.84499,897.05591)"/><path id="path5745" fill="none" stroke="#333" stroke-dasharray="none" stroke-linecap="round" stroke-linejoin="miter" stroke-width="7" d="m371.81,1066.8,86.934-23.294"/><path id="path5747" fill="none" stroke="#333" stroke-dasharray="none" stroke-linecap="round" stroke-linejoin="miter" stroke-width="5" d="m340.2,1055.1-39.515,0"/><path id="path5749" fill="none" stroke="#333" stroke-dasharray="none" stroke-linecap="round" stroke-linejoin="miter" stroke-width="5" d="m340.2,1150-39.515,0"/><path id="path5751" fill="#333" stroke-width="0" d="m395.52,1243.3-20,40,40,0z"/><path id="path5753" fill="#FFF" stroke="#333" stroke-dasharray="none" stroke-linecap="butt" stroke-linejoin="miter" stroke-width="7" d="m395.52,1263.3,0,140"/><path id="path5755" fill="#333" stroke-width="0" d="m632.36,1163.3-20,40,40,0z"/><path id="path5757" fill="#FFF" stroke="#333" stroke-dasharray="none" stroke-linecap="butt" stroke-linejoin="miter" stroke-width="7" d="m632.36,1183.3,0,220"/><path id="path5759" fill="#333" stroke-width="0" d="m877.52,1203.3-20,40,40,0z"/><path id="path5761" fill="#FFF" stroke="#333" stroke-dasharray="none" stroke-linecap="butt" stroke-linejoin="miter" stroke-width="7" d="m877.52,1223.3,0,180"/></g></g></svg>