<svg xmlns="http://www.w3.org/2000/svg" id="svg3866" version="1.1" viewBox="0 0 400 400"><metadata id="metadata3871"/><g id="layer1" transform="translate(0,-652.36218)"><g id="g4704" stroke-miterlimit="4" transform="matrix(0.43478261,0,0,0.43478261,260.60915,555.55942)"><path id="path6645" fill="#90b12f" stroke-width="0" d="M960,500c0,254.05-205.95,460-460,460s-460-205.95-460-460,205.95-460,460-460,460,205.95,460,460z" transform="translate(-639.40105,182.64635)"/><path id="path6713" fill-opacity="0" stroke="#333" stroke-dasharray="none" stroke-dashoffset="0" stroke-linecap="square" stroke-linejoin="round" stroke-width="7.692" d="m120,5000c0,110.46-89.543,200-200,200s-200-89.543-200-200,89.543-200,200-200,200,89.543,200,200z" transform="matrix(1.3,0,0,1.3,-35.401051,-5817.3536)"/><path id="path6760" fill="#000" stroke="#90b12f" stroke-dasharray="none" stroke-dashoffset="0" stroke-linecap="square" stroke-linejoin="round" stroke-opacity=".941" stroke-width="50" d="m-299.32,364.49c-29.014,0-52.535,22.829-52.535,50.99,0,21.312,13.488,39.545,32.616,47.166-50.127,3.8243-32.616,63.312-50.127,97.306h140.09c-17.512-33.993,0-93.482-50.127-97.306,19.128-7.6208,32.616-25.854,32.616-47.166,0-28.161-23.521-50.99-52.535-50.99z"/><path id="path6711" fill="#FFF" stroke="#333" stroke-dasharray="none" stroke-dashoffset="0" stroke-linecap="square" stroke-linejoin="round" stroke-width="10" d="m-299.32,364.49c-29.014,0-52.535,22.829-52.535,50.99,0,21.312,13.488,39.545,32.616,47.166-50.127,3.8243-32.616,63.312-50.127,97.306h140.09c-17.512-33.993,0-93.482-50.127-97.306,19.128-7.6208,32.616-25.854,32.616-47.166,0-28.161-23.521-50.99-52.535-50.99z"/><path id="path6762" fill="#000" stroke="#90b12f" stroke-dasharray="none" stroke-dashoffset="0" stroke-linecap="square" stroke-linejoin="round" stroke-opacity=".941" stroke-width="50" d="m50.552,427.18c-29.014,0-52.535,22.829-52.535,50.99,0,21.311,13.488,39.545,32.616,47.166-50.127,3.8243-32.616,63.313-50.127,97.306h140.09c-17.512-33.993,0-93.482-50.127-97.306,19.128-7.6207,32.616-25.854,32.616-47.166,0-28.161-23.521-50.99-52.535-50.99z"/><path id="path6764" fill="#FFF" stroke="#333" stroke-dasharray="none" stroke-dashoffset="0" stroke-linecap="square" stroke-linejoin="round" stroke-width="10" d="m50.552,427.18c-29.014,0-52.535,22.829-52.535,50.99,0,21.311,13.488,39.545,32.616,47.166-50.127,3.8243-32.616,63.313-50.127,97.306h140.09c-17.512-33.993,0-93.482-50.127-97.306,19.128-7.6207,32.616-25.854,32.616-47.166,0-28.161-23.521-50.99-52.535-50.99z"/><path id="path6766" fill="#000" stroke="#90b12f" stroke-dasharray="none" stroke-dashoffset="0" stroke-linecap="square" stroke-linejoin="round" stroke-opacity=".941" stroke-width="50" d="m-139.32,804.49c-29.014,0-52.535,22.829-52.535,50.99,0,21.312,13.488,39.545,32.616,47.166-50.127,3.8243-32.616,63.312-50.127,97.306h140.09c-17.512-33.993,0-93.482-50.127-97.306,19.128-7.6208,32.615-25.854,32.615-47.166,0-28.161-23.521-50.99-52.535-50.99z"/><path id="path6768" fill="#FFF" stroke="#333" stroke-dasharray="none" stroke-dashoffset="0" stroke-linecap="square" stroke-linejoin="round" stroke-width="10" d="m-139.32,804.49c-29.014,0-52.535,22.829-52.535,50.99,0,21.312,13.488,39.545,32.616,47.166-50.127,3.8243-32.616,63.312-50.127,97.306h140.09c-17.512-33.993,0-93.482-50.127-97.306,19.128-7.6208,32.615-25.854,32.615-47.166,0-28.161-23.521-50.99-52.535-50.99z"/></g></g></svg>