<svg xmlns="http://www.w3.org/2000/svg" id="svg3866" version="1.1" viewBox="0 0 400 400"><metadata id="metadata3871"/><g id="layer1" transform="translate(0,-652.36218)"><g id="g4829" stroke-miterlimit="4" transform="matrix(0.43478261,0,0,0.43478261,337.90778,547.65388)"><path id="path6647" fill="#90b12f" stroke-width="0" d="M960,500c0,254.05-205.95,460-460,460s-460-205.95-460-460,205.95-460,460-460,460,205.95,460,460z" transform="translate(-817.1879,200.82909)"/><rect id="rect6770" width="440" height="520" x="-537.19" y="440.83" fill="#FFF" stroke="#333" stroke-dasharray="none" stroke-dashoffset="0" stroke-linecap="square" stroke-linejoin="round" stroke-width="10"/><g id="g6822" fill="#333" stroke="#333" stroke-dasharray="none" transform="translate(-2802.0058,118.46689)"><path id="path6774" stroke-linecap="round" stroke-linejoin="miter" stroke-width="9.484" d="m2420,492.36,179.89,0"/><path id="path6776" stroke-linecap="round" stroke-linejoin="miter" stroke-width="9.484" d="m2420,612.36,179.89,0"/><path id="path6786" stroke-linecap="round" stroke-linejoin="miter" stroke-width="9.484" d="m2420,552.36,179.89,0"/><path id="path6788" stroke-linecap="round" stroke-linejoin="miter" stroke-width="9.484" d="m2420,672.36,179.89,0"/><path id="path6814" stroke-dashoffset="0" stroke-linecap="square" stroke-linejoin="round" stroke-width="10" d="m2430,5440c0,5.5228-4.4772,10-10,10s-10-4.4772-10-10,4.4772-10,10-10,10,4.4772,10,10z" transform="translate(-40,-4947.6378)"/><path id="path6816" stroke-dashoffset="0" stroke-linecap="square" stroke-linejoin="round" stroke-width="10" d="m2430,5440c0,5.5228-4.4772,10-10,10s-10-4.4772-10-10,4.4772-10,10-10,10,4.4772,10,10z" transform="translate(-40,-4887.6378)"/><path id="path6818" stroke-dashoffset="0" stroke-linecap="square" stroke-linejoin="round" stroke-width="10" d="m2430,5440c0,5.5228-4.4772,10-10,10s-10-4.4772-10-10,4.4772-10,10-10,10,4.4772,10,10z" transform="translate(-40,-4827.6378)"/><path id="path6820" stroke-dashoffset="0" stroke-linecap="square" stroke-linejoin="round" stroke-width="10" d="m2430,5440c0,5.5228-4.4772,10-10,10s-10-4.4772-10-10,4.4772-10,10-10,10,4.4772,10,10z" transform="translate(-40,-4767.6378)"/></g></g></g></svg>