<svg xmlns="http://www.w3.org/2000/svg" id="svg3866" version="1.1" viewBox="0 0 400 400"><metadata id="metadata3871"/><g id="layer1" transform="translate(0,-652.36218)"><g id="g6485" fill="#333" stroke-miterlimit="4" transform="matrix(0.43478261,0,0,0.43478261,96.885813,540.14213)"><path id="path6456" stroke-width="0" d="m697.16,718.11a460,460,0,0,1,-920,0,460,460,0,1,1,920,0z"/><g id="g6622" stroke="#FFF" stroke-dasharray="none" stroke-width="10" transform="translate(-2242.8374,165.74378)"><rect id="rect6603" width="440" height="520" x="352.36" y="-2740" stroke-dashoffset="0" stroke-linecap="square" stroke-linejoin="round" transform="matrix(0,1,-1,0,0,0)"/><path id="path6607" stroke-dashoffset="0" stroke-linecap="round" stroke-linejoin="round" d="m360,380a20,20,0,1,1,-40,0,20,20,0,1,1,40,0z" transform="matrix(0,1,-1,0,2980.0001,72.362305)"/><path id="path6609" stroke-dashoffset="0" stroke-linecap="round" stroke-linejoin="round" d="m360,640a20,20,0,1,1,-40,0,20,20,0,1,1,40,0z" transform="matrix(0,1,-1,0,3000.0001,72.362305)"/><path id="path6613" stroke-linecap="round" stroke-linejoin="miter" d="m2600,412.36,0-100"/><path id="path6615" stroke-linecap="round" stroke-linejoin="miter" d="m2360,412.36,0-100"/></g><path id="path6629" stroke="#FFF" stroke-dasharray="none" stroke-linecap="butt" stroke-linejoin="miter" stroke-width="7" d="m37.269,718.11,400,0"/><path id="path6631" stroke="#FFF" stroke-dasharray="none" stroke-linecap="butt" stroke-linejoin="miter" stroke-width="7" d="m37.269,778.11,400,0"/><path id="path6633" stroke="#FFF" stroke-dasharray="none" stroke-linecap="butt" stroke-linejoin="miter" stroke-width="7.182" d="m37.269,838.11,400,0"/><path id="path6637" stroke="#FFF" stroke-dasharray="none" stroke-linecap="butt" stroke-linejoin="miter" stroke-width="7" d="m117.27,658.11,0,240"/><path id="path6639" stroke="#FFF" stroke-dasharray="none" stroke-linecap="butt" stroke-linejoin="miter" stroke-width="7" d="m357.27,658.11,0,240"/><path id="path6641" stroke="#FFF" stroke-dasharray="none" stroke-linecap="butt" stroke-linejoin="miter" stroke-width="7" d="m237.27,658.11,0,240"/></g></g></svg>