<svg xmlns="http://www.w3.org/2000/svg" id="svg3866" version="1.1" viewBox="0 0 400 400"><metadata id="metadata3871"/><g id="layer1" transform="translate(0,-652.36218)"><g id="g6983" stroke-miterlimit="4" transform="matrix(0.43478261,0,0,0.43478261,391.00346,597.59773)"><path id="path6647" fill="#333" stroke-width="0" d="m20.692,586a460,460,0,0,1,-920,0,460,460,0,1,1,920,0z"/><rect id="rect6770" width="440" height="520" x="-659.31" y="326" fill="#333" stroke="#FFF" stroke-dasharray="none" stroke-dashoffset="0" stroke-linecap="square" stroke-linejoin="round" stroke-width="10"/><g id="g6822" fill="#FFF" stroke="#FFF" stroke-dasharray="none" transform="translate(-2924.1259,3.6331562)"><path id="path6774" stroke-linecap="round" stroke-linejoin="miter" stroke-width="9.484" d="m2420,492.36,179.89,0"/><path id="path6776" stroke-linecap="round" stroke-linejoin="miter" stroke-width="9.484" d="m2420,612.36,179.89,0"/><path id="path6786" stroke-linecap="round" stroke-linejoin="miter" stroke-width="9.484" d="m2420,552.36,179.89,0"/><path id="path6788" stroke-linecap="round" stroke-linejoin="miter" stroke-width="9.484" d="m2420,672.36,179.89,0"/><path id="path6814" stroke-dashoffset="0" stroke-linecap="square" stroke-linejoin="round" stroke-width="10" d="m2430,5440a10,10,0,1,1,-20,0,10,10,0,1,1,20,0z" transform="translate(-40,-4947.6378)"/><path id="path6816" stroke-dashoffset="0" stroke-linecap="square" stroke-linejoin="round" stroke-width="10" d="m2430,5440a10,10,0,1,1,-20,0,10,10,0,1,1,20,0z" transform="translate(-40,-4887.6378)"/><path id="path6818" stroke-dashoffset="0" stroke-linecap="square" stroke-linejoin="round" stroke-width="10" d="m2430,5440a10,10,0,1,1,-20,0,10,10,0,1,1,20,0z" transform="translate(-40,-4827.6378)"/><path id="path6820" stroke-dashoffset="0" stroke-linecap="square" stroke-linejoin="round" stroke-width="10" d="m2430,5440a10,10,0,1,1,-20,0,10,10,0,1,1,20,0z" transform="translate(-40,-4767.6378)"/></g></g></g></svg>