<svg xmlns="http://www.w3.org/2000/svg" id="svg3866" version="1.1" viewBox="0 0 400 400"><metadata id="metadata3871"/><g id="layer1" transform="translate(0,-652.36218)"><g id="g8450" fill="#333" stroke-miterlimit="4" transform="matrix(0.43478261,0,0,0.43478261,45.674739,511.07638)"><path id="path4000" stroke-width="0" d="m814.95,784.96a460,460,0,0,1,-920,0,460,460,0,1,1,920,0z"/><rect id="rect4022" width="372.31" height="440" x="359.86" y="446.34" stroke="#FFF" stroke-dasharray="none" stroke-dashoffset="0" stroke-linecap="square" stroke-linejoin="round" stroke-width="10" transform="matrix(0.96592583,0.25881905,-0.25881905,0.96592583,0,0)"/><rect id="rect4002" width="372.31" height="440" x="168.79" y="564.96" stroke="#FFF" stroke-dasharray="none" stroke-dashoffset="0" stroke-linecap="square" stroke-linejoin="round" stroke-width="10"/><path id="path4004" stroke="#FFF" stroke-dasharray="none" stroke-linecap="round" stroke-linejoin="miter" stroke-width="10" d="m236.49,632.65,236.92,0"/><path id="path4006" stroke="#FFF" stroke-dasharray="none" stroke-linecap="round" stroke-linejoin="miter" stroke-width="10" d="m236.49,734.19,236.92,0"/><path id="path4008" stroke="#FFF" stroke-dasharray="none" stroke-linecap="round" stroke-linejoin="miter" stroke-width="10" d="m236.49,835.73,236.92,0"/><path id="path4010" stroke="#FFF" stroke-dasharray="none" stroke-linecap="round" stroke-linejoin="miter" stroke-width="10" d="m236.49,937.27,236.92,0"/><path id="path4016" stroke="#FFF" stroke-dasharray="none" stroke-linecap="round" stroke-linejoin="miter" stroke-width="10" d="m236.49,683.42,236.92,0"/><path id="path4018" stroke="#FFF" stroke-dasharray="none" stroke-linecap="round" stroke-linejoin="miter" stroke-width="10" d="m236.49,784.96,236.92,0"/><path id="path4020" stroke="#FFF" stroke-dasharray="none" stroke-linecap="round" stroke-linejoin="miter" stroke-width="10" d="m236.49,886.5,236.92,0"/></g></g></svg>