<svg xmlns="http://www.w3.org/2000/svg" id="svg3866" version="1.1" viewBox="0 0 400 400"><metadata id="metadata3871"/><g id="layer1" transform="translate(0,-652.36218)"><g id="g6558" fill="#333" stroke-miterlimit="4" transform="matrix(0.43478261,0,0,0.43478261,167.47405,538.066)"><path id="path5526" stroke-width="0" d="m534.81,722.88a460,460,0,0,1,-920,0,460,460,0,1,1,920,0z"/><rect id="rect5528" width="440" height="520" x="-145.19" y="462.88" stroke="#FFF" stroke-dasharray="10 30" stroke-dashoffset="0" stroke-linecap="round" stroke-linejoin="round" stroke-width="10"/><path id="path5538" stroke="#FFF" stroke-dasharray="none" stroke-dashoffset="0" stroke-linecap="round" stroke-linejoin="round" stroke-width="10" d="m-65.19,602.88a20,20,0,0,1,-40,0,20,20,0,1,1,40,0z"/><path id="path5540" stroke="#FFF" stroke-dasharray="none" stroke-dashoffset="0" stroke-linecap="round" stroke-linejoin="round" stroke-width="10" d="m-65.19,842.88a20,20,0,0,1,-40,0,20,20,0,1,1,40,0z"/><path id="path6222" stroke="#FFF" stroke-dasharray="none" stroke-linecap="round" stroke-linejoin="miter" stroke-width="10" d="m-85.19,602.88-100,0"/><path id="path6224" stroke="#FFF" stroke-dasharray="none" stroke-linecap="round" stroke-linejoin="miter" stroke-width="10" d="m-85.19,842.88-100,0"/><path id="path3219" stroke="#FFF" stroke-dasharray="none" stroke-linecap="round" stroke-linejoin="miter" stroke-width="10" d="M7.5897,718.59,206.81,665.21"/><path id="path3221" stroke="#FFF" stroke-dasharray="none" stroke-linecap="round" stroke-linejoin="miter" stroke-width="10" d="M7.5897,664.26,206.81,610.88"/></g></g></svg>