<svg xmlns="http://www.w3.org/2000/svg" id="svg3866" version="1.1" viewBox="0 0 400 400"><metadata id="metadata3871"/><g id="layer1" transform="translate(0,-652.36218)"><g id="g6638" stroke-miterlimit="4" transform="matrix(0.43478261,0,0,0.43478261,216.609,554.675)"><path id="path5548" fill="#333" stroke-width="0" d="m421.8,684.68a460,460,0,0,1,-920,0,460,460,0,1,1,920,0z"/><path id="path5652" fill="#333" stroke="#FFF" stroke-dasharray="none" stroke-linecap="butt" stroke-linejoin="miter" stroke-width="8.854" d="m-318.2,964.68,70.833-70.833,35.417,35.417,53.75-104.58,40,80,80-160"/><rect id="rect5656" width="241.56" height="285.48" x="-19.761" y="419.2" fill="#333" stroke="#FFF" stroke-dasharray="none" stroke-dashoffset="0" stroke-linecap="square" stroke-linejoin="round" stroke-width="10"/><path id="path5658" fill="#333" stroke="#FFF" stroke-dasharray="none" stroke-linecap="round" stroke-linejoin="miter" stroke-width="7" d="M57.099,545.18,177.88,512.82"/><path id="path5660" fill="#333" stroke="#FFF" stroke-dasharray="none" stroke-dashoffset="0" stroke-linecap="round" stroke-linejoin="round" stroke-width="5" d="m24.159,496.06a10.98,10.98,0,0,1,-21.96,0,10.98,10.98,0,1,1,21.96,0z"/><path id="path5662" fill="#333" stroke="#FFF" stroke-dasharray="none" stroke-dashoffset="0" stroke-linecap="round" stroke-linejoin="round" stroke-width="5" d="m24.159,627.82a10.98,10.98,0,0,1,-21.96,0,10.98,10.98,0,1,1,21.96,0z"/><path id="path5664" fill="#333" stroke="#FFF" stroke-dasharray="none" stroke-linecap="round" stroke-linejoin="miter" stroke-width="7" d="M57.099,512.24,177.88,479.88"/><path id="path5666" fill="#333" stroke="#FFF" stroke-dasharray="none" stroke-linecap="round" stroke-linejoin="miter" stroke-width="5" d="m13.179,496.06-54.9,0"/><path id="path5668" fill="#333" stroke="#FFF" stroke-dasharray="none" stroke-linecap="round" stroke-linejoin="miter" stroke-width="5" d="m13.179,627.82-54.9,0"/><path id="path5670" fill="#FFF" stroke-width="0" d="m-72.201,758.68,40-20,0,40"/><path id="path5672" fill="#333" stroke="#FFF" stroke-dasharray="none" stroke-linecap="round" stroke-linejoin="miter" stroke-width="5" d="m237.8,434.68,0,250"/><path id="path6226" fill="#333" stroke="#FFF" stroke-dasharray="none" stroke-linecap="round" stroke-linejoin="miter" stroke-width="5" d="m251.8,444.68,0,230"/></g></g></svg>