<svg xmlns="http://www.w3.org/2000/svg" id="svg3866" version="1.1" viewBox="0 0 400 400"><metadata id="metadata3871"/><g id="layer1" transform="translate(0,-652.36218)"><g id="g6171" fill="#333" stroke-miterlimit="4" transform="matrix(0.43478261,0,0,0.4347826,346.69172,625.83091)"><path id="path5272" stroke-width="0" d="m122.61,521.02a460,460,0,0,1,-920,0,460,460,0,1,1,920,0z"/><rect id="rect5274" width="241.56" height="285.48" x="-255.03" y="378.28" stroke="#FFF" stroke-dasharray="none" stroke-dashoffset="0" stroke-linecap="square" stroke-linejoin="round" stroke-width="10"/><path id="path5278" stroke="#FFF" stroke-dasharray="none" stroke-linecap="round" stroke-linejoin="miter" stroke-width="7" d="m-178.17,504.26,120.78-32.363"/><path id="path5284" stroke="#FFF" stroke-dasharray="none" stroke-dashoffset="0" stroke-linecap="round" stroke-linejoin="round" stroke-width="5" d="m-211.11,455.14a10.98,10.98,0,0,1,-21.96,0,10.98,10.98,0,1,1,21.96,0z"/><path id="path5286" stroke="#FFF" stroke-dasharray="none" stroke-dashoffset="0" stroke-linecap="round" stroke-linejoin="round" stroke-width="5" d="m-211.11,586.9a10.98,10.98,0,0,1,-21.96,0,10.98,10.98,0,1,1,21.96,0z"/><path id="path5288" stroke="#FFF" stroke-dasharray="none" stroke-linecap="round" stroke-linejoin="miter" stroke-width="7" d="m-178.17,471.32,120.78-32.363"/><path id="path5294" stroke="#FFF" stroke-dasharray="none" stroke-linecap="round" stroke-linejoin="miter" stroke-width="5" d="m-222.09,455.14-54.9,0"/><path id="path5298" stroke="#FFF" stroke-dasharray="none" stroke-linecap="round" stroke-linejoin="miter" stroke-width="5" d="m-222.09,586.9-54.9,0"/><path id="path5371" stroke="#FFF" stroke-dasharray="none" stroke-linecap="butt" stroke-linejoin="miter" stroke-width="7" d="m-257.39,521.02-420,0"/><g id="g5492" stroke="#FFF" stroke-dasharray="none" transform="translate(-1837.3909,-31.340295)"><rect id="rect5373" width="140" height="180" x="1180" y="612.36" stroke-dashoffset="0" stroke-linecap="round" stroke-linejoin="round" stroke-width="7"/><path id="path5375" stroke-dashoffset="0" stroke-linecap="round" stroke-linejoin="round" stroke-width="5" d="m1310,500a20,20,0,1,1,-40,0,20,20,0,1,1,40,0z" transform="translate(-40,52.36218)"/><path id="path5377" stroke-linecap="butt" stroke-linejoin="miter" stroke-width="5" d="m1250,572.36,0,40"/><path id="path5379" stroke-linecap="round" stroke-linejoin="miter" stroke-width="4" d="m1300,642.36-70,0"/><path id="path5381" stroke-linecap="round" stroke-linejoin="miter" stroke-width="4" d="m1230,672.36,70,0"/><path id="path5383" stroke-linecap="round" stroke-linejoin="miter" stroke-width="4" d="m1230,702.36,70,0"/><path id="path5385" stroke-linecap="round" stroke-linejoin="miter" stroke-width="4" d="m1230,732.36,70,0"/><path id="path5387" stroke-linecap="round" stroke-linejoin="miter" stroke-width="4" d="m1230,762.36,70,0"/><path id="path5389" stroke-dashoffset="0" stroke-linecap="round" stroke-linejoin="round" stroke-width="3" d="m1250,620a5,5,0,1,1,-10,0,5,5,0,1,1,10,0z" transform="matrix(1.3885202,0,0,1.3885202,-523.70766,-188.52035)"/><path id="path5490" stroke-dashoffset="0" stroke-linecap="round" stroke-linejoin="round" stroke-width="3" d="m1250,620a5,5,0,1,1,-10,0,5,5,0,1,1,10,0z" transform="matrix(1.3885202,0,0,1.3885202,-523.70766,-128.41627)"/></g><g id="g5504" stroke="#FFF" stroke-dasharray="none" transform="translate(-1645.3909,-31.340295)"><rect id="rect5506" width="140" height="180" x="1180" y="612.36" stroke-dashoffset="0" stroke-linecap="round" stroke-linejoin="round" stroke-width="7"/><path id="path5508" stroke-dashoffset="0" stroke-linecap="round" stroke-linejoin="round" stroke-width="5" d="m1310,500a20,20,0,1,1,-40,0,20,20,0,1,1,40,0z" transform="translate(-40,52.36218)"/><path id="path5510" stroke-linecap="butt" stroke-linejoin="miter" stroke-width="5" d="m1250,572.36,0,40"/><path id="path5512" stroke-linecap="round" stroke-linejoin="miter" stroke-width="4" d="m1300,642.36-70,0"/><path id="path5514" stroke-linecap="round" stroke-linejoin="miter" stroke-width="4" d="m1230,672.36,70,0"/><path id="path5516" stroke-linecap="round" stroke-linejoin="miter" stroke-width="4" d="m1230,702.36,70,0"/><path id="path5518" stroke-linecap="round" stroke-linejoin="miter" stroke-width="4" d="m1230,732.36,70,0"/><path id="path5520" stroke-linecap="round" stroke-linejoin="miter" stroke-width="4" d="m1230,762.36,70,0"/><path id="path5522" stroke-dashoffset="0" stroke-linecap="round" stroke-linejoin="round" stroke-width="3" d="m1250,620a5,5,0,1,1,-10,0,5,5,0,1,1,10,0z" transform="matrix(1.3885202,0,0,1.3885202,-523.70766,-188.52035)"/><path id="path5524" stroke-dashoffset="0" stroke-linecap="round" stroke-linejoin="round" stroke-width="3" d="m1250,620a5,5,0,1,1,-10,0,5,5,0,1,1,10,0z" transform="matrix(1.3885202,0,0,1.3885202,-523.70766,-128.41627)"/></g></g></g></svg>