<svg xmlns="http://www.w3.org/2000/svg" id="svg3866" version="1.1" viewBox="0 0 400 400"><metadata id="metadata3871"/><g id="layer1" transform="translate(0,-652.36218)"><g id="g7945" stroke-miterlimit="4"><path id="path5918" fill="#333" stroke-width="0" d="m400,852.36a200,200,0,0,1,-400,0,200,200,0,1,1,400,0z"/><rect id="rect5920" width="75.595" height="89.339" x="165.64" y="761.28" fill="#333" stroke="#FFF" stroke-dasharray="none" stroke-dashoffset="0" stroke-linecap="square" stroke-linejoin="round" stroke-width="3.043"/><path id="path5922" fill="#333" stroke="#FFF" stroke-dasharray="none" stroke-linecap="round" stroke-linejoin="miter" stroke-width="3.043" d="M189.69,800.71,227.49,790.58"/><path id="path5924" fill="#333" stroke="#FFF" stroke-dasharray="none" stroke-dashoffset="0" stroke-linecap="round" stroke-linejoin="round" stroke-width="2.174" d="m179.38,785.34a3.4361,3.4361,0,0,1,-6.8722,0,3.4361,3.4361,0,1,1,6.8722,0z"/><path id="path5926" fill="#333" stroke="#FFF" stroke-dasharray="none" stroke-dashoffset="0" stroke-linecap="round" stroke-linejoin="round" stroke-width="2.174" d="m179.38,826.57a3.4361,3.4361,0,0,1,-6.8722,0,3.4361,3.4361,0,1,1,6.8722,0z"/><path id="path5928" fill="#333" stroke="#FFF" stroke-dasharray="none" stroke-linecap="round" stroke-linejoin="miter" stroke-width="3.043" d="M189.69,790.4,227.49,780.27"/><path id="path5930" fill="#333" stroke="#FFF" stroke-dasharray="none" stroke-linecap="round" stroke-linejoin="miter" stroke-width="2.174" d="m175.95,785.34-17.181,0"/><path id="path5932" fill="#333" stroke="#FFF" stroke-dasharray="none" stroke-linecap="round" stroke-linejoin="miter" stroke-width="2.174" d="m175.95,826.57-17.181,0"/><rect id="rect5934" width="75.595" height="89.339" x="272.23" y="795.24" fill="#333" stroke="#FFF" stroke-dasharray="3.043 9.13" stroke-dashoffset="0" stroke-linecap="square" stroke-linejoin="round" stroke-width="3.043"/><path id="path5936" fill="#333" stroke="#FFF" stroke-dasharray="none" stroke-linecap="round" stroke-linejoin="miter" stroke-width="3.043" d="M296.28,834.66,334.08,824.54"/><path id="path5938" fill="#333" stroke="#FFF" stroke-dasharray="none" stroke-dashoffset="0" stroke-linecap="round" stroke-linejoin="round" stroke-width="2.174" d="m285.98,819.29a3.4361,3.4361,0,0,1,-6.8722,0,3.4361,3.4361,0,1,1,6.8722,0z"/><path id="path5940" fill="#333" stroke="#FFF" stroke-dasharray="none" stroke-dashoffset="0" stroke-linecap="round" stroke-linejoin="round" stroke-width="2.174" d="m285.98,860.53a3.4361,3.4361,0,0,1,-6.8722,0,3.4361,3.4361,0,1,1,6.8722,0z"/><path id="path5942" fill="#333" stroke="#FFF" stroke-dasharray="none" stroke-linecap="round" stroke-linejoin="miter" stroke-width="3.043" d="M296.28,824.36,334.08,814.23"/><path id="path5944" fill="#333" stroke="#FFF" stroke-dasharray="none" stroke-linecap="round" stroke-linejoin="miter" stroke-width="2.174" d="m282.54,819.29-17.181,0"/><path id="path5946" fill="#333" stroke="#FFF" stroke-dasharray="none" stroke-linecap="round" stroke-linejoin="miter" stroke-width="2.174" d="m282.54,860.53-17.181,0"/><rect id="rect5948" width="75.595" height="89.339" x="62.666" y="813.46" fill="#333" stroke="#FFF" stroke-dasharray="3.043 9.13" stroke-dashoffset="0" stroke-linecap="square" stroke-linejoin="round" stroke-width="3.043"/><path id="path5950" fill="#333" stroke="#FFF" stroke-dasharray="none" stroke-linecap="round" stroke-linejoin="miter" stroke-width="3.043" d="M86.719,852.88,124.52,842.76"/><path id="path5952" fill="#333" stroke="#FFF" stroke-dasharray="none" stroke-dashoffset="0" stroke-linecap="round" stroke-linejoin="round" stroke-width="2.174" d="m76.411,837.51a3.4361,3.4361,0,0,1,-6.8722,0,3.4361,3.4361,0,1,1,6.8722,0z"/><path id="path5954" fill="#333" stroke="#FFF" stroke-dasharray="none" stroke-dashoffset="0" stroke-linecap="round" stroke-linejoin="round" stroke-width="2.174" d="m76.411,878.74a3.4361,3.4361,0,0,1,-6.8722,0,3.4361,3.4361,0,1,1,6.8722,0z"/><path id="path5956" fill="#333" stroke="#FFF" stroke-dasharray="none" stroke-linecap="round" stroke-linejoin="miter" stroke-width="3.043" d="M86.719,842.57,124.52,832.45"/><path id="path5958" fill="#333" stroke="#FFF" stroke-dasharray="none" stroke-linecap="round" stroke-linejoin="miter" stroke-width="2.174" d="m72.975,837.51-17.181,0"/><path id="path5960" fill="#333" stroke="#FFF" stroke-dasharray="none" stroke-linecap="round" stroke-linejoin="miter" stroke-width="2.174" d="m72.975,878.74-17.181,0"/><path id="path5964" fill="#FFF" stroke-width="0" d="m97.027,919.32-8.6957,17.391,17.391,0z"/><path id="path5966" fill="#FFF" stroke="#FFF" stroke-dasharray="none" stroke-linecap="butt" stroke-linejoin="miter" stroke-width="3.043" d="m97.027,928.01,0,60.87"/><path id="path5970" fill="#FFF" stroke-width="0" d="m200,868.01-8.6956,17.391,17.391,0z"/><path id="path5972" fill="#FFF" stroke="#FFF" stroke-dasharray="none" stroke-linecap="butt" stroke-linejoin="miter" stroke-width="3.043" d="m200,876.71,0,95.652"/><path id="path5976" fill="#FFF" stroke-width="0" d="m306.59,901.97-8.6957,17.391,17.391,0z"/><path id="path5978" fill="#FFF" stroke="#FFF" stroke-dasharray="none" stroke-linecap="butt" stroke-linejoin="miter" stroke-width="3.043" d="m306.59,910.66,0,78.261"/><path id="rect5984" fill="#333" stroke="#FFF" stroke-dasharray="none" stroke-dashoffset="0" stroke-linecap="round" stroke-linejoin="round" stroke-width="3" d="m222.9,691.07-21.739,37.653-15.061-8.6956-4.3478,7.5306,15.061,8.6956,7.5307,4.3478,4.3478-7.5307,21.739-37.653-7.5306-4.3478z"/></g></g></svg>