<svg xmlns="http://www.w3.org/2000/svg" id="svg3866" version="1.1" viewBox="0 0 400 400"><metadata id="metadata3871"/><g id="layer1" transform="translate(0,-652.36218)"><g id="g6268" fill="#333" stroke-miterlimit="4" transform="matrix(0.43478261,0,0,0.43478261,116.95502,475.78226)"><path id="path5351" stroke-width="0" d="m651,866.13a460,460,0,0,1,-920,0,460,460,0,1,1,920,0z"/><rect id="rect5353" width="440" height="520" x="-28.997" y="606.13" stroke="#FFF" stroke-dasharray="none" stroke-dashoffset="0" stroke-linecap="square" stroke-linejoin="round" stroke-width="10"/><path id="path5355" stroke="#FFF" stroke-dasharray="none" stroke-linecap="round" stroke-linejoin="miter" stroke-width="10.488" d="m111,835.61,220-58.949"/><path id="path5357" stroke="#FFF" stroke-dasharray="none" stroke-dashoffset="0" stroke-linecap="round" stroke-linejoin="round" stroke-width="10" d="m51.003,746.13a20,20,0,0,1,-40,0,20,20,0,1,1,40,0z"/><path id="path5359" stroke="#FFF" stroke-dasharray="none" stroke-dashoffset="0" stroke-linecap="round" stroke-linejoin="round" stroke-width="10" d="m51.003,986.13a20,20,0,0,1,-40,0,20,20,0,1,1,40,0z"/><path id="path5361" stroke="#FFF" stroke-dasharray="none" stroke-linecap="round" stroke-linejoin="miter" stroke-width="10.488" d="m111,775.61,220-58.949"/><path id="path5363" stroke="#FFF" stroke-dasharray="none" stroke-linecap="round" stroke-linejoin="miter" stroke-width="10" d="m31.003,746.13-100,0"/><path id="path5365" stroke="#FFF" stroke-dasharray="none" stroke-linecap="round" stroke-linejoin="miter" stroke-width="10" d="m31.003,986.13-100,0"/><path id="path5367" stroke="#FFF" stroke-dasharray="none" stroke-linecap="round" stroke-linejoin="miter" stroke-width="10" d="m431,626.13,0,480"/><path id="path5369" stroke="#FFF" stroke-dasharray="none" stroke-linecap="round" stroke-linejoin="miter" stroke-width="9.574" d="m451,646.13,0,440"/></g></g></svg>