<svg xmlns="http://www.w3.org/2000/svg" id="svg3866" version="1.1" viewBox="0 0 400 400"><metadata id="metadata3871"/><g id="layer1" transform="translate(0,-652.36218)"><g id="g8049" fill="#333" stroke-miterlimit="4" transform="matrix(0.43478261,0,0,0.43478261,-167.01044,307.75132)"><path id="path5796" stroke-width="0" d="m1304.1,1252.7a460,460,0,0,1,-920,0,460,460,0,1,1,920,0z"/><rect id="rect5353-7" width="440" height="520" x="624.23" y="992.7" stroke="#FFF" stroke-dasharray="none" stroke-dashoffset="0" stroke-linecap="square" stroke-linejoin="round" stroke-width="10"/><path id="path5355-1" stroke="#FFF" stroke-dasharray="none" stroke-linecap="round" stroke-linejoin="miter" stroke-width="10.488" d="m764.23,1222.2,220-58.949"/><path id="path5357-9" stroke="#FFF" stroke-dasharray="none" stroke-dashoffset="0" stroke-linecap="round" stroke-linejoin="round" stroke-width="10" d="m704.23,1132.7a20,20,0,0,1,-40,0,20,20,0,1,1,40,0z"/><path id="path5359-0" stroke="#FFF" stroke-dasharray="none" stroke-dashoffset="0" stroke-linecap="round" stroke-linejoin="round" stroke-width="10" d="m704.23,1372.7a20,20,0,0,1,-40,0,20,20,0,1,1,40,0z"/><path id="path5361-1" stroke="#FFF" stroke-dasharray="none" stroke-linecap="round" stroke-linejoin="miter" stroke-width="10.488" d="m764.23,1162.2,220-58.949"/><path id="path5363-0" stroke="#FFF" stroke-dasharray="none" stroke-linecap="round" stroke-linejoin="miter" stroke-width="10" d="m684.23,1132.7-100,0"/><path id="path5365-3" stroke="#FFF" stroke-dasharray="none" stroke-linecap="round" stroke-linejoin="miter" stroke-width="10" d="m684.23,1372.7-100,0"/><path id="path5367-2" stroke="#FFF" stroke-dasharray="none" stroke-linecap="round" stroke-linejoin="miter" stroke-width="10" d="m1084.2,1012.7,0,480"/><path id="path5369-7" stroke="#FFF" stroke-dasharray="none" stroke-linecap="round" stroke-linejoin="miter" stroke-width="9.574" d="m1104.2,1032.7,0,440"/><path id="path5822" stroke="#FFF" stroke-dasharray="none" stroke-linecap="butt" stroke-linejoin="miter" stroke-width="6.528" d="m761.81,1371.3c-8.8532-23.742,19.078-83.039,23.588-72.857,6.6533,15.017,3.349,63.603,9.9319,78.462,1.7566,3.9646,4.5702-81.71,9.932-75.659,8.5064,9.6,7.9286,72.857,23.588,72.857,2.7667,0,5.2572-72.2,9.9319-61.648,5.2381,11.823-1.4417,48.813,7.449,58.846,11.564,13.05,15.688-87.887,24.83-67.253,4.3085,9.7247,1.531,45.489,6.2075,56.044,0.3209,0.7242,4.966-35.403,4.966-30.824,0,13.057,0.7482,33.626,7.449,33.626,20.242,0,22.551-13.626,52.551,6.3735"/><path id="path5826" stroke="#FFF" stroke-dasharray="none" stroke-linecap="butt" stroke-linejoin="miter" stroke-width="5" d="m942.23,1339.2c9.4803,15.462,30,30,30,50"/><path id="path5828" stroke="#FFF" stroke-dasharray="none" stroke-linecap="butt" stroke-linejoin="miter" stroke-width="5" d="m942.23,1389.2c1.2703-11.735,23.899-45.917,40-30"/></g></g></svg>