<svg xmlns="http://www.w3.org/2000/svg" id="svg3866" version="1.1" viewBox="0 0 400 400"><metadata id="metadata3871"/><g id="layer1" transform="translate(0,-652.36218)"><g id="g6399" fill="#333" stroke-miterlimit="4" transform="matrix(0.4347826,0,0,0.4347826,449.13495,618.34283)"><path id="path6366" stroke-width="0" d="m-113.01,538.24a460,460,0,0,1,-920,0,460,460,0,1,1,920,0z"/><rect id="rect6510" width="467.35" height="226.8" x="-804.28" y="376.46" stroke="#FFF" stroke-dasharray="none" stroke-dashoffset="0" stroke-linecap="square" stroke-linejoin="round" stroke-width="10"/><path id="rect6514" stroke="#FFF" stroke-dasharray="none" stroke-dashoffset="0" stroke-linecap="square" stroke-linejoin="round" stroke-width="5" d="m-745.86,404.81c0,15.657-13.077,28.35-29.209,28.35v113.4c16.132,0,29.209,12.693,29.209,28.35h350.51c0-15.657,13.077-28.35,29.209-28.35v-113.4c-16.132,0-29.209-12.693-29.209-28.35h-350.51z"/><path id="path6526" stroke="#FFF" stroke-dasharray="none" stroke-dashoffset="0" stroke-linecap="square" stroke-linejoin="round" stroke-width="7" d="m-570.61,428.01c-18.258,0-33.059,14.366-33.059,32.087,0,13.411,8.4876,24.885,20.524,29.681-31.544,2.4065-20.524,39.841-31.544,61.233h88.158c-11.02-21.391,0-58.826-31.544-61.233,12.037-4.7957,20.524-16.27,20.524-29.681,0-17.721-14.801-32.087-33.059-32.087z"/><path id="path6528" stroke="#FFF" stroke-dasharray="none" stroke-dashoffset="0" stroke-linecap="square" stroke-linejoin="round" stroke-width="7" d="m-409.96,489.86a29.209,28.35,0,0,1,-58.418,0,29.209,28.35,0,1,1,58.418,0z"/><path id="path6530" stroke="#FFF" stroke-dasharray="none" stroke-dashoffset="0" stroke-linecap="square" stroke-linejoin="round" stroke-width="7" d="m-672.84,489.86a29.209,28.35,0,0,1,-58.418,0,29.209,28.35,0,1,1,58.418,0z"/><path id="path6555" stroke="#FFF" stroke-dasharray="none" stroke-linecap="butt" stroke-linejoin="miter" stroke-width="6" d="m-789.01,630.03h432"/><path id="path6557" stroke="#FFF" stroke-dasharray="none" stroke-linecap="butt" stroke-linejoin="miter" stroke-width="6" d="m-813.01,630.03h480"/><path id="path6561" stroke="#FFF" stroke-dasharray="none" stroke-linecap="butt" stroke-linejoin="miter" stroke-width="6" d="m-813.01,654.03h480"/><path id="path6563" stroke="#FFF" stroke-dasharray="none" stroke-linecap="butt" stroke-linejoin="miter" stroke-width="6" d="m-813.01,678.03h480"/><path id="path6565" stroke="#FFF" stroke-dasharray="none" stroke-linecap="butt" stroke-linejoin="miter" stroke-width="6" d="m-813.01,702.03h480"/></g></g></svg>