<svg xmlns="http://www.w3.org/2000/svg" id="svg3866" version="1.1" viewBox="0 0 400 400"><metadata id="metadata3871"/><g id="layer1" transform="translate(0,-652.36218)"><g id="g6858" fill="#333" stroke-miterlimit="4" transform="matrix(0.43478261,0,0,0.43478261,114.18685,546.3705)"><path id="path6645" stroke-width="0" d="m657.37,703.78a460,460,0,0,1,-920,0,460,460,0,1,1,920,0z"/><path id="path6713" stroke="#FFF" stroke-dasharray="none" stroke-dashoffset="0" stroke-linecap="square" stroke-linejoin="round" stroke-width="10" d="m457.37,703.78a260,260,0,0,1,-520,0,260,260,0,1,1,520,0z"/><path id="path6760" stroke="#333" stroke-dasharray="none" stroke-dashoffset="0" stroke-linecap="square" stroke-linejoin="round" stroke-width="50" d="m37.451,385.63c-29.014,0-52.535,22.829-52.535,50.99,0,21.312,13.488,39.545,32.616,47.166-50.127,3.8243-32.616,63.312-50.127,97.306h140.09c-17.512-33.993,0-93.482-50.127-97.306,19.128-7.6208,32.616-25.854,32.616-47.166,0-28.161-23.521-50.99-52.535-50.99z"/><path id="path6711" stroke="#FFF" stroke-dasharray="none" stroke-dashoffset="0" stroke-linecap="square" stroke-linejoin="round" stroke-width="10" d="m37.451,385.63c-29.014,0-52.535,22.829-52.535,50.99,0,21.312,13.488,39.545,32.616,47.166-50.127,3.8243-32.616,63.312-50.127,97.306h140.09c-17.512-33.993,0-93.482-50.127-97.306,19.128-7.6208,32.616-25.854,32.616-47.166,0-28.161-23.521-50.99-52.535-50.99z"/><path id="path6762" stroke="#333" stroke-dasharray="none" stroke-dashoffset="0" stroke-linecap="square" stroke-linejoin="round" stroke-width="50" d="m387.32,448.32c-29.014,0-52.535,22.829-52.535,50.99,0,21.311,13.488,39.545,32.616,47.166-50.127,3.8243-32.616,63.313-50.127,97.306h140.09c-17.512-33.993,0-93.482-50.127-97.306,19.128-7.6207,32.616-25.854,32.616-47.166,0-28.161-23.521-50.99-52.535-50.99z"/><path id="path6764" stroke="#FFF" stroke-dasharray="none" stroke-dashoffset="0" stroke-linecap="square" stroke-linejoin="round" stroke-width="10" d="m387.32,448.32c-29.014,0-52.535,22.829-52.535,50.99,0,21.311,13.488,39.545,32.616,47.166-50.127,3.8243-32.616,63.313-50.127,97.306h140.09c-17.512-33.993,0-93.482-50.127-97.306,19.128-7.6207,32.616-25.854,32.616-47.166,0-28.161-23.521-50.99-52.535-50.99z"/><path id="path6766" stroke="#333" stroke-dasharray="none" stroke-dashoffset="0" stroke-linecap="square" stroke-linejoin="round" stroke-width="50" d="m197.45,825.63c-29.014,0-52.535,22.829-52.535,50.99,0,21.312,13.488,39.545,32.616,47.166-50.127,3.8243-32.616,63.312-50.127,97.306h140.09c-17.512-33.993,0-93.482-50.127-97.306,19.128-7.6208,32.616-25.854,32.616-47.166,0-28.161-23.521-50.99-52.535-50.99z"/><path id="path6768" stroke="#FFF" stroke-dasharray="none" stroke-dashoffset="0" stroke-linecap="square" stroke-linejoin="round" stroke-width="10" d="m197.45,825.63c-29.014,0-52.535,22.829-52.535,50.99,0,21.312,13.488,39.545,32.616,47.166-50.127,3.8243-32.616,63.312-50.127,97.306h140.09c-17.512-33.993,0-93.482-50.127-97.306,19.128-7.6208,32.616-25.854,32.616-47.166,0-28.161-23.521-50.99-52.535-50.99z"/></g></g></svg>