<svg xmlns="http://www.w3.org/2000/svg" id="svg3866" version="1.1" viewBox="0 0 400 400"><metadata id="metadata3871"/><g id="layer1" transform="translate(0,-652.36218)"><g id="g8306" stroke-miterlimit="4" transform="matrix(0.43478261,0,0,0.43478261,112.89619,497.57633)"><path id="path6210" fill="#333" stroke="#FFF" stroke-dasharray="none" stroke-dashoffset="0" stroke-linecap="square" stroke-linejoin="round" stroke-width="4.643" d="m83.445,996.01a27.857,27.857,0,0,1,-55.714,0,27.857,27.857,0,1,1,55.714,0z"/><rect id="rect6212" width="520" height="69.333" x="-59.555" y="961.34" fill="#333" stroke-width="0" ry="34.667"/><path id="path6045" fill="#333" stroke-width="0" d="m660.34,816.01a460,460,0,0,1,-920,0,460,460,0,1,1,920,0z"/><g id="g6124" fill="#333" stroke="#FFF" stroke-dasharray="none" transform="translate(-2300.6012,229.62672)"><rect id="rect5656-2" width="241.56" height="285.48" x="2383.1" y="386.38" stroke-dashoffset="0" stroke-linecap="square" stroke-linejoin="round" stroke-width="10"/><path id="path5658-2" stroke-linecap="round" stroke-linejoin="miter" stroke-width="7" d="m2460,512.36,120.78-32.363"/><path id="path5660-5" stroke-dashoffset="0" stroke-linecap="round" stroke-linejoin="round" stroke-width="9.107" d="m360,380a20,20,0,1,1,-40,0,20,20,0,1,1,40,0z" transform="matrix(0.54899995,0,0,0.54899995,2229.42,254.6207)"/><path id="path5662-8" stroke-dashoffset="0" stroke-linecap="round" stroke-linejoin="round" stroke-width="9.107" d="m360,640a20,20,0,1,1,-40,0,20,20,0,1,1,40,0z" transform="matrix(0.54899995,0,0,0.54899995,2229.42,243.6407)"/><path id="path5664-4" stroke-linecap="round" stroke-linejoin="miter" stroke-width="7" d="m2460,479.42,120.78-32.363"/><path id="path5666-7" stroke-linecap="round" stroke-linejoin="miter" stroke-width="5" d="m2416.1,463.24-54.9,0"/><path id="path5668-2" stroke-linecap="round" stroke-linejoin="miter" stroke-width="5" d="m2416.1,595-54.9,0"/><path id="path5672-2" stroke-linecap="round" stroke-linejoin="miter" stroke-width="5" d="m2640.7,401.86,0,250"/></g><path id="path5822-2" fill="#333" stroke="#FFF" stroke-dasharray="none" stroke-linecap="butt" stroke-linejoin="miter" stroke-width="4" d="m153.57,834.58c-5.3915-14.459,11.618-50.57,14.365-44.37,4.0518,9.1455,2.0395,38.734,6.0485,47.783,1.0698,2.4145,2.7833-49.761,6.0485-46.076,5.1804,5.8463,4.8286,44.37,14.365,44.37,1.6848,0,3.2015-43.969,6.0485-37.544,3.19,7.2001-0.878,29.727,4.5364,35.837,7.0422,7.9475,9.5539-53.523,15.121-40.957,2.6238,5.9223,0.9325,27.702,3.7804,34.13,0.1955,0.441,3.0243-21.56,3.0243-18.772,0,7.9517,0.4556,20.478,4.5363,20.478,12.327,0,13.734-8.2985,32.003,3.8814"/><path id="path5826-7" fill="#333" stroke="#FFF" stroke-dasharray="none" stroke-linecap="butt" stroke-linejoin="miter" stroke-width="4" d="m263.45,815.08c5.7736,9.416,18.27,18.27,18.27,30.45"/><path id="path5828-5" fill="#333" stroke="#FFF" stroke-dasharray="none" stroke-linecap="butt" stroke-linejoin="miter" stroke-width="4" d="m263.45,845.53c0.7737-7.1468,14.554-27.963,24.36-18.27"/><rect id="rect6198" width="600" height="80" x="-99.555" y="956.01" fill="#333" stroke="#FFF" stroke-dasharray="10 20" stroke-dashoffset="0" stroke-linecap="square" stroke-linejoin="round" stroke-width="10" ry="40"/><path id="path6200" fill="#FFF" stroke="#FFF" stroke-dasharray="none" stroke-dashoffset="0" stroke-linecap="square" stroke-linejoin="round" stroke-width="3.939" d="m-33.611,996.01a21.944,21.944,0,0,1,-43.887,0,21.944,21.944,0,1,1,43.887,0z"/><path id="path6202" fill="#FFF" stroke="#FFF" stroke-dasharray="none" stroke-dashoffset="0" stroke-linecap="square" stroke-linejoin="round" stroke-width="4" d="m476.45,996.01a21.944,21.944,0,0,1,-43.888,0,21.944,21.944,0,1,1,43.888,0z"/><path id="path6204" fill="#FFF" stroke="#FFF" stroke-dasharray="none" stroke-dashoffset="0" stroke-linecap="square" stroke-linejoin="round" stroke-width="4" d="m374.43,996.01a21.944,21.944,0,0,1,-43.888,0,21.944,21.944,0,1,1,43.888,0z"/><path id="path6206" fill="#FFF" stroke="#FFF" stroke-dasharray="none" stroke-dashoffset="0" stroke-linecap="square" stroke-linejoin="round" stroke-width="4" d="m272.42,996.01a21.944,21.944,0,0,1,-43.888,0,21.944,21.944,0,1,1,43.888,0z"/><path id="path6208" fill="#FFF" stroke="#FFF" stroke-dasharray="none" stroke-dashoffset="0" stroke-linecap="square" stroke-linejoin="round" stroke-width="4" d="m170.41,996.01a21.944,21.944,0,0,1,-43.888,0,21.944,21.944,0,1,1,43.888,0z"/><path id="path6220" fill="#FFF" stroke="#FFF" stroke-dasharray="none" stroke-dashoffset="0" stroke-linecap="square" stroke-linejoin="round" stroke-width="4" d="m68.4,996.01a21.944,21.944,0,0,1,-43.888,0,21.944,21.944,0,1,1,43.888,0z"/></g></g></svg>