<svg xmlns="http://www.w3.org/2000/svg" id="svg3866" version="1.1" viewBox="0 0 400 400"><metadata id="metadata3871"/><g id="layer1" transform="translate(0,-652.36218)"><g id="g6031" fill="#333" stroke-miterlimit="4" transform="matrix(0.43478261,0,0,0.43478261,368.65156,606.50624)"><path id="path4684" stroke-width="0" d="m72.101,565.47a460,460,0,0,1,-920,0,460,460,0,1,1,920,0z"/><rect id="rect4686" width="440" height="520" x="-607.9" y="305.47" stroke="#FFF" stroke-dasharray="none" stroke-dashoffset="0" stroke-linecap="square" stroke-linejoin="round" stroke-width="10"/><path id="path5215" stroke="#FFF" stroke-dasharray="none" stroke-linecap="round" stroke-linejoin="miter" stroke-width="10.488" d="m-467.9,385.47,220,0"/><path id="path5219" stroke="#FFF" stroke-dasharray="none" stroke-linecap="round" stroke-linejoin="miter" stroke-width="10.488" d="m-467.9,505.47,220,0"/><path id="path5221" stroke="#FFF" stroke-dasharray="none" stroke-linecap="round" stroke-linejoin="miter" stroke-width="10.488" d="m-467.9,625.47,220,0"/><path id="path5223" stroke="#FFF" stroke-dasharray="none" stroke-linecap="round" stroke-linejoin="miter" stroke-width="10.488" d="m-467.9,745.47,220,0"/><path id="path5227" stroke="#FFF" stroke-dasharray="none" stroke-dashoffset="0" stroke-linecap="round" stroke-linejoin="round" stroke-width="10" d="m-527.9,445.47a20,20,0,0,1,-40,0,20,20,0,1,1,40,0z"/><path id="path5229" stroke="#FFF" stroke-dasharray="none" stroke-dashoffset="0" stroke-linecap="round" stroke-linejoin="round" stroke-width="10" d="m-527.9,685.47a20,20,0,0,1,-40,0,20,20,0,1,1,40,0z"/><path id="path5231" stroke="#FFF" stroke-dasharray="none" stroke-linecap="round" stroke-linejoin="miter" stroke-width="10.488" d="m-467.9,445.47,220,0"/><path id="path5233" stroke="#FFF" stroke-dasharray="none" stroke-linecap="round" stroke-linejoin="miter" stroke-width="10.488" d="m-467.9,565.47,220,0"/><path id="path5235" stroke="#FFF" stroke-dasharray="none" stroke-linecap="round" stroke-linejoin="miter" stroke-width="10.488" d="m-467.9,685.47,220,0"/></g></g></svg>