<svg xmlns="http://www.w3.org/2000/svg" id="svg3866" version="1.1" viewBox="0 0 400 400"><metadata id="metadata3871"/><g id="layer1" transform="translate(0,-652.36218)"><g id="g6770" stroke-miterlimit="4" transform="matrix(0.43478261,0,0,0.43478261,357.78547,634.95182)"><path id="path5564" fill="#333" stroke-width="0" d="m97.093,500.04a460,460,0,0,1,-920,0,460,460,0,1,1,920,0z"/><rect id="rect5694" width="173.87" height="205.48" x="-441.94" y="274.56" fill="#333" stroke="#FFF" stroke-dasharray="7 21" stroke-dashoffset="0" stroke-linecap="square" stroke-linejoin="round" stroke-width="7"/><path id="path5696" fill="#333" stroke="#FFF" stroke-dasharray="none" stroke-linecap="round" stroke-linejoin="miter" stroke-width="7" d="m-386.62,365.24,86.934-23.294"/><path id="path5698" fill="#333" stroke="#FFF" stroke-dasharray="none" stroke-dashoffset="0" stroke-linecap="round" stroke-linejoin="round" stroke-width="5" d="m-410.32,329.89a7.9031,7.9031,0,0,1,-15.806,0,7.9031,7.9031,0,1,1,15.806,0z"/><path id="path5700" fill="#333" stroke="#FFF" stroke-dasharray="none" stroke-dashoffset="0" stroke-linecap="round" stroke-linejoin="round" stroke-width="5" d="m-410.32,424.72a7.9031,7.9031,0,0,1,-15.806,0,7.9031,7.9031,0,1,1,15.806,0z"/><path id="path5702" fill="#333" stroke="#FFF" stroke-dasharray="none" stroke-linecap="round" stroke-linejoin="miter" stroke-width="7" d="m-386.62,341.53,86.934-23.294"/><path id="path5704" fill="#333" stroke="#FFF" stroke-dasharray="none" stroke-linecap="round" stroke-linejoin="miter" stroke-width="5" d="m-418.23,329.89-39.515,0"/><path id="path5706" fill="#333" stroke="#FFF" stroke-dasharray="none" stroke-linecap="round" stroke-linejoin="miter" stroke-width="5" d="m-418.23,424.72-39.515,0"/><rect id="rect5721" width="173.87" height="205.48" x="-196.77" y="314.56" fill="#333" stroke="#FFF" stroke-dasharray="7 21" stroke-dashoffset="0" stroke-linecap="square" stroke-linejoin="round" stroke-width="7"/><path id="path5723" fill="#333" stroke="#FFF" stroke-dasharray="none" stroke-linecap="round" stroke-linejoin="miter" stroke-width="7" d="M-141.45,405.24-54.519,381.95"/><path id="path5725" fill="#333" stroke="#FFF" stroke-dasharray="none" stroke-dashoffset="0" stroke-linecap="round" stroke-linejoin="round" stroke-width="5" d="m-165.16,369.89a7.9031,7.9031,0,0,1,-15.806,0,7.9031,7.9031,0,1,1,15.806,0z"/><path id="path5727" fill="#333" stroke="#FFF" stroke-dasharray="none" stroke-dashoffset="0" stroke-linecap="round" stroke-linejoin="round" stroke-width="5" d="m-165.16,464.72a7.9031,7.9031,0,0,1,-15.806,0,7.9031,7.9031,0,1,1,15.806,0z"/><path id="path5729" fill="#333" stroke="#FFF" stroke-dasharray="none" stroke-linecap="round" stroke-linejoin="miter" stroke-width="7" d="m-141.45,381.53,86.934-23.294"/><path id="path5731" fill="#333" stroke="#FFF" stroke-dasharray="none" stroke-linecap="round" stroke-linejoin="miter" stroke-width="5" d="m-173.06,369.89-39.515,0"/><path id="path5733" fill="#333" stroke="#FFF" stroke-dasharray="none" stroke-linecap="round" stroke-linejoin="miter" stroke-width="5" d="m-173.06,464.72-39.515,0"/><rect id="rect5737" width="173.87" height="205.48" x="-678.77" y="356.56" fill="#333" stroke="#FFF" stroke-dasharray="7 21" stroke-dashoffset="0" stroke-linecap="square" stroke-linejoin="round" stroke-width="7"/><path id="path5739" fill="#333" stroke="#FFF" stroke-dasharray="none" stroke-linecap="round" stroke-linejoin="miter" stroke-width="7" d="m-623.45,447.24,86.934-23.294"/><path id="path5741" fill="#333" stroke="#FFF" stroke-dasharray="none" stroke-dashoffset="0" stroke-linecap="round" stroke-linejoin="round" stroke-width="5" d="m-647.16,411.89a7.9031,7.9031,0,0,1,-15.806,0,7.9031,7.9031,0,1,1,15.806,0z"/><path id="path5743" fill="#333" stroke="#FFF" stroke-dasharray="none" stroke-dashoffset="0" stroke-linecap="round" stroke-linejoin="round" stroke-width="5" d="m-647.16,506.72a7.9031,7.9031,0,0,1,-15.806,0,7.9031,7.9031,0,1,1,15.806,0z"/><path id="path5745" fill="#333" stroke="#FFF" stroke-dasharray="none" stroke-linecap="round" stroke-linejoin="miter" stroke-width="7" d="m-623.45,423.53,86.934-23.294"/><path id="path5747" fill="#333" stroke="#FFF" stroke-dasharray="none" stroke-linecap="round" stroke-linejoin="miter" stroke-width="5" d="m-655.06,411.89-39.515,0"/><path id="path5749" fill="#333" stroke="#FFF" stroke-dasharray="none" stroke-linecap="round" stroke-linejoin="miter" stroke-width="5" d="m-655.06,506.72-39.515,0"/><path id="path5751" fill="#FFF" stroke-width="0" d="m-599.74,600.04-20,40,40,0z"/><path id="path5753" fill="#333" stroke="#FFF" stroke-dasharray="none" stroke-linecap="butt" stroke-linejoin="miter" stroke-width="7" d="m-599.74,620.04,0,140"/><path id="path5755" fill="#FFF" stroke-width="0" d="m-362.91,520.04-20,40,40,0z"/><path id="path5757" fill="#333" stroke="#FFF" stroke-dasharray="none" stroke-linecap="butt" stroke-linejoin="miter" stroke-width="7" d="m-362.91,540.04,0,220"/><path id="path5759" fill="#FFF" stroke-width="0" d="m-117.74,560.04-20,40,40,0z"/><path id="path5761" fill="#333" stroke="#FFF" stroke-dasharray="none" stroke-linecap="butt" stroke-linejoin="miter" stroke-width="7" d="m-117.74,580.04,0,180"/></g></g></svg>